<?xml version="1.0" standalone="no"?>
<!DOCTYPE svg PUBLIC "-//W3C//DTD SVG 20010904//EN"
 "http://www.w3.org/TR/2001/REC-SVG-20010904/DTD/svg10.dtd">
<svg version="1.0" xmlns="http://www.w3.org/2000/svg"
 width="512.000000pt" height="512.000000pt" viewBox="0 0 512.000000 512.000000"
 preserveAspectRatio="xMidYMid meet">

<g transform="translate(0.000000,512.000000) scale(0.100000,-0.100000)"
fill="#000000" stroke="none">
<path d="M3 4473 c3 -456 8 -662 16 -694 9 -36 9 -67 0 -140 -13 -100 -23
-1009 -10 -954 7 28 8 27 15 -20 10 -70 19 -689 10 -787 -9 -105 -21 -81 -23
45 -1 56 -4 103 -6 106 -3 2 -4 -83 -4 -190 1 -111 5 -181 9 -164 4 17 8 22 9
13 0 -10 6 -18 11 -18 6 0 10 -11 10 -25 0 -14 13 -39 30 -56 16 -17 36 -53
45 -80 17 -49 34 -65 36 -31 0 9 10 -2 20 -26 12 -24 25 -40 31 -36 7 5 9 123
7 380 -3 270 -1 376 7 384 9 9 14 8 20 -2 5 -7 7 -174 5 -371 -3 -343 1 -390
25 -339 5 9 9 138 9 286 0 200 3 270 12 273 20 7 24 -54 16 -250 -5 -124 -5
-186 2 -184 16 6 23 53 24 165 1 83 4 102 16 102 18 0 29 -40 20 -69 -4 -13
-2 -21 5 -21 6 0 13 13 16 30 4 19 11 27 18 22 6 -4 20 -7 31 -7 12 0 25 -11
33 -29 10 -20 17 -25 22 -16 6 9 9 9 13 -1 8 -24 57 93 57 139 0 31 4 42 15
42 8 0 15 5 15 10 0 6 5 10 10 10 6 0 10 -78 11 -212 1 -117 4 -224 8 -238 l7
-25 8 24 c5 14 5 122 1 240 -9 268 -8 318 9 343 13 18 14 17 19 -14 3 -18 3
-78 0 -133 -8 -135 6 -435 20 -435 7 0 7 103 1 333 -11 439 -11 426 6 437 8 5
18 6 22 4 4 -3 8 -166 9 -362 0 -296 3 -352 13 -328 10 22 13 295 14 1275 1
1482 -1 1348 13 1334 8 -8 12 -343 14 -1144 4 -1377 4 -1310 16 -1280 6 14 11
510 14 1260 3 680 8 1251 11 1270 5 23 2 36 -7 42 -10 6 -7 9 11 9 l25 0 -1
-1013 c-1 -556 -4 -1115 -8 -1240 -4 -179 -3 -228 7 -224 9 3 13 139 18 598 3
327 10 632 14 679 l9 85 12 -60 c7 -33 11 -74 9 -91 -2 -16 0 -36 4 -43 5 -8
11 12 15 49 7 61 76 348 97 405 7 17 23 55 37 85 20 45 23 61 16 90 -11 39 4
210 18 210 4 0 8 -28 9 -62 1 -35 4 -74 8 -87 6 -23 8 -21 26 20 46 101 210
325 302 410 74 69 172 141 183 134 5 -3 18 3 30 15 11 11 28 20 37 20 9 0 -4
-15 -31 -34 -158 -112 -325 -324 -448 -566 -128 -253 -199 -531 -219 -860 -6
-102 -11 -195 -11 -207 0 -14 -5 -20 -14 -16 -8 3 -14 9 -14 15 0 5 -4 7 -9 4
-5 -4 -12 0 -14 6 -6 14 -2 -64 9 -172 10 -115 54 -311 99 -445 24 -71 39
-131 34 -133 -12 -5 -11 -273 0 -291 15 -23 24 66 19 179 -2 55 -3 100 -1 100
1 0 22 -42 47 -92 44 -90 60 -116 126 -204 16 -23 30 -46 30 -52 0 -6 4 -12 9
-14 13 -5 103 -118 94 -118 -5 0 -14 10 -21 21 -12 19 -20 21 -60 15 -26 -4
-55 -7 -64 -7 -10 0 -20 -4 -23 -10 -4 -5 -13 -9 -21 -9 -10 0 -14 15 -16 58
l-2 57 -3 -52 c-4 -51 -22 -81 -43 -68 -5 3 -8 20 -5 36 3 17 1 38 -4 47 -8
13 -10 2 -11 -40 0 -51 -2 -58 -20 -58 -18 0 -20 7 -20 72 0 89 -9 86 -11 -5
-2 -54 -6 -70 -20 -78 -24 -12 -28 5 -32 136 l-3 100 -2 -121 c-2 -120 -6
-134 -38 -134 -2 0 -5 71 -6 158 l-2 157 -6 -160 c-5 -152 -6 -160 -25 -160
-19 0 -20 8 -25 230 l-6 230 -2 -237 c-2 -231 -3 -238 -22 -238 -19 0 -20 7
-21 213 -2 179 -3 199 -10 127 -5 -47 -8 -141 -7 -210 2 -129 -2 -150 -28
-150 -12 0 -14 27 -14 157 0 86 -3 154 -6 151 -7 -8 -13 -100 -14 -220 0 -91
-1 -98 -20 -98 -18 0 -20 7 -20 82 0 45 -2 79 -5 76 -3 -2 -5 -36 -6 -75 -1
-80 -7 -93 -40 -98 -13 -1 -32 -6 -41 -10 -15 -6 -18 -2 -18 23 0 58 -15 70
-20 17 -4 -42 -8 -50 -25 -50 -11 0 -19 6 -18 13 2 6 -2 12 -7 12 -6 0 -10 -9
-10 -19 0 -15 -18 -31 -35 -31 -1 0 -6 42 -11 93 l-9 92 -5 -95 c-5 -87 -7
-95 -25 -95 -19 0 -20 8 -23 157 -1 87 -6 158 -10 158 -4 0 -7 -73 -7 -162 0
-161 0 -163 -22 -166 l-23 -3 -1 188 c-1 147 -3 178 -11 143 -5 -25 -7 -111
-4 -192 3 -83 1 -148 -4 -148 -4 0 -15 -3 -24 -6 -14 -5 -16 10 -16 127 0 73
-2 130 -5 127 -3 -3 -6 -63 -8 -134 -2 -125 -3 -129 -25 -132 -21 -3 -22 -1
-22 74 0 97 -10 92 -14 -7 -3 -67 -6 -74 -25 -77 -20 -3 -21 1 -21 67 0 41 -4
71 -10 71 -6 0 -10 -31 -10 -74 0 -58 -3 -75 -16 -80 -28 -11 -32 2 -30 89 1
47 -1 91 -5 97 -4 6 -8 -33 -8 -88 -1 -81 -4 -101 -18 -111 -9 -7 -20 -13 -25
-13 -4 0 -8 72 -8 159 0 96 -4 162 -10 166 -7 4 -10 -51 -10 -159 l0 -166 -25
-6 -25 -6 0 -134 c0 -74 3 -134 7 -134 3 0 16 8 27 17 12 10 9 4 -6 -13 l-28
-30 0 -447 0 -447 2560 0 2560 0 -2 606 -3 606 -60 4 c-33 3 -67 7 -75 11 -8
3 -25 5 -36 4 -12 -1 -28 4 -35 11 -9 8 -48 14 -104 16 -49 2 -91 8 -93 12 -2
5 -16 7 -32 3 -42 -8 -48 15 -49 187 -1 79 -4 146 -6 149 -3 2 -5 -71 -5 -162
0 -158 -1 -167 -19 -167 -11 0 -21 6 -24 13 -3 9 -8 9 -17 1 -6 -7 -20 -9 -31
-7 -18 5 -19 17 -21 172 l-2 166 -3 -155 c-2 -85 -8 -159 -13 -164 -5 -5 -17
-5 -27 -1 -10 5 -27 10 -38 12 -11 1 -55 8 -97 14 -43 7 -78 16 -78 20 0 5 -7
6 -15 3 -9 -4 -28 -2 -43 4 -15 6 -60 14 -100 17 -92 7 -100 11 -105 43 l-4
27 -2 -28 c-1 -25 -4 -27 -23 -21 -13 4 -32 7 -43 6 -10 -1 -25 4 -32 10 -7 5
-24 7 -38 4 -23 -6 -25 -4 -26 31 -1 37 -2 37 -8 8 -7 -30 -10 -32 -46 -21
-15 4 -25 -2 -40 -27 -28 -46 -28 -45 -8 -50 17 -4 17 -5 1 -6 -10 0 -18 -5
-18 -10 0 -7 81 -17 195 -24 17 -1 33 -5 36 -10 3 -4 30 -10 60 -13 30 -2 99
-15 154 -29 55 -13 109 -26 120 -28 15 -4 13 -5 -7 -6 -15 0 -62 8 -103 20
-74 20 -172 33 -160 20 11 -11 85 -29 79 -19 -4 6 1 6 12 0 27 -13 79 -29 148
-42 41 -8 55 -15 45 -21 -11 -7 -9 -9 9 -10 30 -2 35 -3 47 -11 6 -4 36 -9 68
-12 42 -3 90 -20 187 -66 72 -35 142 -62 156 -62 19 0 23 -5 19 -18 -4 -13 3
-21 25 -30 17 -7 28 -15 25 -18 -3 -3 12 -24 34 -46 73 -76 91 -112 91 -181 0
-56 -3 -66 -36 -108 -105 -134 -425 -291 -779 -382 -32 -8 -66 -15 -75 -14 -8
0 7 7 35 14 27 8 59 19 70 24 11 6 54 22 95 35 192 62 335 126 415 187 22 16
56 40 75 54 114 78 185 188 146 227 -8 9 -13 24 -10 35 7 27 -61 101 -151 162
-81 56 -85 57 -85 38 0 -15 51 -67 66 -67 5 1 -7 14 -26 30 -19 17 -29 30 -23
30 12 0 103 -95 103 -107 0 -4 -10 4 -21 19 -24 33 -54 28 -39 -5 9 -20 9 -20
-2 -3 -35 50 -51 66 -61 59 -7 -3 -9 -3 -5 2 8 9 -42 44 -90 64 -18 8 -35 18
-38 23 -4 6 4 5 16 -2 36 -19 81 -30 74 -18 -4 6 -1 9 7 6 8 -3 13 -12 11 -22
-4 -20 14 -21 22 -1 6 16 -56 52 -140 81 -56 19 -154 28 -154 14 0 -6 -8 -10
-17 -10 -15 0 -15 -2 2 -14 11 -7 29 -16 40 -19 11 -4 2 -4 -20 -1 -29 3 -36
2 -25 -5 8 -6 37 -14 63 -17 46 -7 47 -7 30 -26 -17 -19 -17 -19 10 -13 20 5
28 3 33 -10 4 -9 13 -14 20 -11 9 3 11 0 7 -11 -4 -11 -2 -14 5 -9 7 4 12 2
12 -3 0 -6 7 -11 15 -11 9 0 20 -10 25 -22 5 -13 25 -34 44 -48 35 -25 35 -26
32 -87 -2 -34 -8 -68 -12 -75 -22 -37 -69 -88 -81 -88 -8 0 -12 -4 -9 -9 6
-10 -58 -71 -75 -71 -6 0 -7 -5 -3 -11 4 -7 -1 -7 -16 1 -18 10 -22 9 -27 -8
-6 -23 -56 -48 -74 -36 -7 4 -10 3 -6 -3 9 -15 -60 -47 -103 -48 -19 -1 -29 0
-22 2 6 3 12 9 12 14 0 5 -9 4 -19 -3 -11 -7 -17 -18 -13 -27 5 -13 3 -14 -9
-4 -12 10 -26 9 -65 -3 -27 -8 -56 -13 -64 -11 -8 2 3 9 25 15 22 6 49 18 60
26 11 9 28 16 37 16 9 0 23 6 30 13 7 7 51 33 98 58 91 47 204 147 194 173 -3
8 -13 12 -24 9 -24 -6 -45 -31 -36 -40 4 -4 11 -1 16 7 6 8 10 10 10 4 0 -16
-39 -64 -53 -64 -7 0 -17 -8 -24 -19 -10 -16 -65 -47 -236 -132 -56 -28 -104
-38 -93 -20 6 8 -17 6 -54 -5 -11 -4 -12 -7 -1 -13 9 -6 0 -13 -29 -25 -51
-20 -64 -15 -18 7 18 9 27 17 21 17 -17 0 -74 -35 -67 -42 2 -3 -12 -9 -33
-12 -21 -4 -53 -12 -70 -19 -25 -8 -36 -8 -45 1 -14 14 -50 15 -115 3 -73 -15
-229 -39 -316 -51 -135 -17 -148 -9 -17 11 69 10 154 25 190 33 36 8 90 20
120 26 93 18 241 66 233 75 -5 4 -3 5 3 2 11 -6 107 23 121 36 3 4 14 7 23 7
9 0 25 9 35 20 10 12 25 18 33 15 7 -3 26 3 40 13 15 10 44 26 64 35 46 21
144 110 163 148 23 44 19 131 -7 165 -39 51 -82 86 -137 111 -53 24 -85 26
-39 3 27 -14 88 -70 88 -81 0 -5 -15 6 -32 22 -21 19 -40 28 -53 25 -20 -5
-63 19 -56 32 4 7 -11 17 -49 32 -14 5 -32 14 -40 20 -30 19 -91 42 -96 37 -7
-7 50 -37 71 -37 9 0 13 -4 10 -10 -3 -6 1 -7 10 -4 11 4 14 2 9 -9 -3 -10 5
-21 23 -32 42 -26 71 -67 73 -105 3 -42 -9 -100 -21 -100 -4 0 -10 -9 -14 -19
-7 -24 -58 -78 -108 -115 -41 -30 -191 -94 -282 -121 -31 -8 -53 -20 -50 -25
6 -10 -33 -25 -42 -16 -4 3 2 6 12 6 10 0 16 2 13 5 -3 3 -49 -4 -104 -15
-329 -69 -481 -84 -894 -84 -515 -1 -830 36 -1155 136 -272 83 -400 169 -429
290 -14 58 62 170 157 230 93 59 110 74 101 90 -6 10 -3 9 9 -1 15 -12 19 -12
32 5 11 16 11 20 0 27 -17 9 -122 -23 -204 -63 -33 -16 -75 -36 -95 -44 -41
-17 -161 -94 -191 -122 -11 -11 -26 -31 -34 -46 -8 -15 -18 -25 -22 -22 -4 2
-10 0 -14 -6 -3 -5 -3 -10 2 -10 4 0 7 -20 5 -45 -2 -25 1 -59 7 -75 5 -17 6
-28 1 -25 -5 3 -15 31 -22 63 -12 54 -13 55 -16 21 -2 -20 4 -55 12 -79 10
-30 12 -49 5 -59 -8 -12 -8 -10 -3 8 4 16 3 21 -5 17 -6 -4 -14 -1 -17 8 -3 8
-11 13 -18 10 -28 -11 -78 101 -72 160 5 40 117 149 143 139 15 -6 16 -5 3 9
-14 14 -17 14 -40 -2 -42 -30 -144 -151 -156 -185 -8 -22 -9 -48 -3 -81 13
-68 46 -116 129 -184 l25 -20 -35 19 c-35 20 -137 118 -132 126 5 10 -11 55
-20 55 -6 0 -8 26 -4 64 5 64 5 65 -15 48 -10 -9 -19 -22 -19 -29 0 -14 -47
-29 -58 -19 -3 4 4 9 16 13 20 5 26 15 23 35 0 4 6 5 14 2 9 -4 15 0 15 8 0 8
9 23 20 33 11 10 20 14 20 9 0 -5 5 -2 10 6 8 12 11 13 19 1 6 -9 11 -10 15
-2 4 6 2 11 -3 11 -6 0 -11 5 -11 11 0 7 10 9 24 5 14 -3 28 -2 31 4 3 6 -1 7
-9 4 -19 -7 -22 21 -4 33 7 4 13 15 13 23 0 9 13 15 38 17 21 1 45 7 53 14 8
6 23 9 35 6 13 -3 40 6 70 24 28 16 48 25 45 20 -4 -5 7 -4 23 2 17 6 27 15
24 20 -3 4 1 7 8 6 8 -1 39 9 69 23 30 14 82 33 115 43 89 26 115 36 115 46 0
5 10 9 23 9 25 0 192 37 222 50 34 14 -148 -12 -248 -36 -22 -5 -26 -3 -22 9
5 12 -1 13 -37 6 -24 -4 -52 -8 -63 -8 -37 1 37 28 78 29 21 0 36 4 33 8 -3 5
14 9 37 10 23 0 69 8 101 16 33 9 62 13 65 8 8 -10 51 -10 45 0 -3 4 -1 8 4 8
14 0 43 -36 35 -44 -4 -4 0 -4 8 -1 9 3 27 -5 43 -20 15 -14 50 -38 78 -54 27
-16 46 -31 41 -33 -4 -3 -2 -3 4 -2 7 2 43 -11 80 -28 l68 -31 -46 -8 c-51 -8
-99 -29 -118 -53 -8 -9 -18 -16 -23 -16 -6 0 0 9 13 21 27 23 23 22 -46 -12
-27 -13 -66 -40 -87 -60 -32 -30 -38 -42 -38 -77 0 -29 7 -49 26 -71 25 -30
53 -44 38 -19 -5 7 8 1 27 -13 18 -14 49 -34 67 -43 19 -10 30 -21 26 -28 -4
-6 -3 -8 4 -4 6 3 44 -7 85 -23 80 -32 212 -70 262 -76 l30 -4 -30 9 c-27 9
-26 9 10 5 22 -3 47 -5 55 -6 8 0 4 -5 -10 -9 -15 -5 0 -6 37 -3 40 4 68 2 76
-6 10 -8 104 -11 313 -12 291 0 455 11 592 42 24 5 48 7 53 4 5 -4 9 -1 9 6 0
6 8 9 20 6 11 -3 20 -2 20 2 0 4 21 13 48 21 64 18 229 104 269 138 24 20 33
37 35 64 1 20 5 35 10 32 4 -3 5 -19 3 -37 -5 -32 -5 -32 14 8 l20 40 -41 41
c-37 39 -39 43 -22 53 11 6 14 11 9 11 -6 0 -16 -5 -23 -12 -6 -6 -15 -8 -19
-4 -4 4 -2 10 4 14 6 4 -9 8 -33 9 -24 1 -54 9 -66 17 -26 19 -51 20 -79 6
-17 -10 -14 -14 34 -53 64 -53 79 -79 65 -118 -21 -62 -146 -127 -336 -175
-107 -27 -358 -54 -508 -54 -388 0 -797 92 -888 200 -50 60 -22 130 74 188 65
39 97 49 112 34 8 -8 3 -13 -18 -18 -49 -12 -120 -62 -139 -98 -15 -28 -17
-39 -8 -59 25 -55 149 -116 328 -161 144 -36 261 -48 410 -42 72 3 200 8 285
11 85 4 180 10 210 15 30 5 71 12 90 15 66 11 221 68 207 78 -8 5 -2 7 16 4
15 -2 25 -2 23 1 -3 2 6 13 19 24 66 51 65 137 -3 172 -24 13 -31 12 -72 -9
-25 -12 -60 -26 -77 -30 -31 -6 -33 -9 -33 -48 0 -24 -7 -48 -17 -59 -25 -28
0 -21 27 7 14 15 23 37 23 55 0 37 14 39 23 4 15 -60 -103 -128 -285 -164
-194 -38 -267 -43 -416 -31 -77 7 -156 16 -175 21 l-35 9 40 -4 c22 -3 119 -7
215 -9 l175 -4 -160 8 c-88 5 -173 14 -190 20 l-30 10 32 -5 c18 -2 93 -7 165
-11 111 -5 153 -3 258 15 158 27 219 45 255 73 18 14 26 17 24 7 -8 -25 -92
-58 -214 -83 -66 -13 -110 -24 -98 -25 33 -1 232 38 269 54 59 24 94 64 94
105 l0 37 -52 -8 c-29 -5 -65 -14 -80 -20 -29 -12 -237 -17 -355 -9 -137 9
-73 16 118 12 140 -3 202 -1 233 9 22 7 43 13 46 14 3 0 22 4 42 8 21 4 40 12
43 17 3 5 -7 5 -25 0 -42 -12 -37 -4 13 20 l42 20 -45 -5 -45 -5 50 14 c76 21
29 18 -80 -4 -181 -37 -420 -21 -585 41 -61 23 -154 68 -215 104 -21 13 -44
21 -50 18 -5 -4 -7 -3 -3 2 9 9 -30 40 -39 31 -4 -3 -1 -6 5 -6 7 0 12 -5 12
-10 0 -7 -7 -7 -21 1 -29 15 -48 -3 -29 -28 23 -30 -59 46 -167 156 -66 66
-130 145 -177 215 -69 105 -185 321 -201 376 -4 14 -17 52 -30 85 -22 58 -58
184 -89 310 -8 33 -17 94 -21 135 -4 48 -13 82 -23 94 -13 14 -17 37 -16 107
0 48 -3 86 -8 83 -4 -3 -8 0 -8 5 0 6 4 11 8 11 5 0 6 16 3 36 l-6 37 -153 -2
c-102 -2 -152 1 -152 8 0 6 12 12 28 12 l27 1 -30 8 -30 8 35 2 35 3 -35 6
-35 7 30 11 c19 7 23 12 12 12 -10 1 -15 6 -12 11 3 6 -2 10 -12 10 -15 0 -16
2 -3 10 8 5 11 10 6 10 -5 0 -3 7 4 15 10 12 10 15 -1 16 -8 1 0 5 16 9 23 6
25 8 8 9 -22 1 -24 19 -10 79 3 12 1 22 -5 22 -7 0 -6 5 2 15 6 8 9 19 5 25
-3 5 1 13 10 16 10 4 15 14 12 25 -3 11 2 23 11 29 10 5 12 10 5 10 -7 0 -11
14 -10 35 2 27 6 35 22 36 15 0 16 2 5 7 -8 4 -16 15 -18 25 -2 13 4 17 25 18
l28 1 -25 8 c-14 4 -19 8 -11 9 7 1 11 7 7 16 -3 8 0 15 7 15 8 0 7 3 -2 9
-12 8 -8 11 15 17 l29 8 -25 7 -25 7 25 2 c23 1 23 2 5 10 -19 8 -19 8 5 18
22 9 22 11 5 12 l-20 1 20 9 c19 8 19 9 1 9 -18 1 -18 2 -3 19 10 10 14 22 10
25 -3 4 1 7 9 7 10 0 14 6 12 18 -3 9 4 27 15 39 14 15 17 23 8 26 -9 4 -9 6
1 6 6 1 12 12 12 26 0 16 6 25 16 25 8 0 12 5 9 10 -3 6 2 10 12 11 10 0 13 3
7 5 -17 7 -5 44 15 45 12 0 11 2 -4 9 -18 7 -16 9 13 15 40 9 52 24 14 18
l-27 -3 25 11 c17 8 21 13 11 16 -9 4 -5 12 15 29 26 21 27 23 9 24 -14 1 -9
6 15 15 19 7 29 14 21 14 -20 1 6 31 27 31 13 0 12 3 -4 15 -18 13 -16 14 26
16 30 1 36 3 18 6 -58 9 -23 40 58 52 l59 9 -55 2 -55 3 70 13 70 13 -65 -4
c-79 -5 -54 10 35 21 44 5 54 9 40 15 -11 4 -35 8 -53 8 -51 1 -28 21 26 23
l47 1 -45 7 c-25 4 -39 8 -32 8 7 1 11 6 8 11 -3 5 11 8 31 6 21 -1 27 0 13 3
-20 4 -12 8 35 18 57 12 57 13 12 9 l-48 -5 27 25 c15 14 34 25 43 26 10 0 12
2 3 6 -18 7 -4 23 21 24 12 0 40 9 62 20 37 18 28 20 -20 5 -11 -3 -2 3 20 14
22 11 34 20 26 20 -11 0 -9 4 5 15 25 19 15 19 -31 -1 -20 -8 -39 -13 -41 -11
-2 2 15 11 39 21 23 9 50 21 60 27 32 17 101 38 232 69 72 17 153 37 180 45
62 17 114 28 118 23 2 -2 11 3 19 10 9 7 22 10 31 6 8 -3 18 -1 22 5 3 6 19
11 34 11 15 0 31 3 35 7 3 4 14 8 24 9 372 48 622 -2 919 -184 132 -82 266
-213 394 -387 49 -66 92 -124 96 -130 5 -5 15 -23 23 -38 8 -16 16 -24 18 -18
8 24 24 10 18 -16 -5 -21 -4 -24 4 -13 23 35 150 -152 136 -202 -2 -10 0 -18
5 -18 5 0 9 -7 9 -16 0 -9 6 -28 14 -42 8 -15 20 -40 27 -57 13 -30 14 -29 19
34 7 83 25 91 34 14 15 -127 18 -145 27 -132 5 8 9 48 10 89 0 41 4 100 8 130
l7 55 7 -50 c4 -27 11 -113 17 -190 19 -254 25 -260 34 -35 10 251 11 265 21
265 4 0 10 -119 12 -265 3 -263 11 -416 19 -407 3 3 7 243 10 533 2 291 7 541
10 557 13 61 24 20 26 -90 1 -65 3 -129 4 -143 1 -14 2 -218 3 -455 1 -282 5
-425 11 -415 6 9 10 170 11 400 0 380 6 488 23 462 4 -7 7 -160 7 -340 -1
-339 6 -529 20 -515 4 4 9 148 11 320 2 211 7 316 14 323 15 15 26 -189 24
-448 -2 -233 -2 -222 12 -197 9 14 12 99 13 275 0 154 5 265 11 279 15 34 23
-165 19 -469 -12 -899 -13 -1365 -2 -1389 10 -20 13 56 17 356 4 280 8 385 17
394 29 29 34 -39 27 -422 -6 -294 -4 -387 6 -423 7 -25 15 -46 19 -46 3 0 5
134 3 297 -2 287 3 342 27 318 13 -13 13 -23 11 -390 -1 -288 4 -365 26 -365
4 0 4 123 0 272 -6 234 -5 276 8 293 12 16 16 17 20 5 3 -8 7 -146 8 -307 2
-222 6 -295 16 -305 10 -10 13 29 12 212 -1 211 0 225 17 225 17 0 18 -15 21
-237 1 -132 6 -238 11 -238 15 0 24 145 17 252 -5 82 -4 98 8 98 24 0 30 -38
27 -172 -2 -87 1 -133 10 -150 l12 -23 9 30 c5 17 6 78 2 138 -5 73 -3 107 4
107 18 0 24 -18 30 -108 7 -87 19 -110 33 -60 4 14 10 106 13 205 3 98 10 221
14 273 l7 95 5 -160 c3 -88 1 -168 -3 -178 -5 -10 -4 -17 3 -17 5 0 10 -18 10
-39 0 -48 18 -65 20 -19 1 18 4 819 6 1781 l4 1747 -2561 0 -2560 0 4 -647z
m833 390 c5 -53 6 -53 40 -53 19 0 34 -4 34 -10 0 -5 -20 -10 -45 -10 l-45 0
2 98 c0 53 3 81 5 62 1 -19 6 -59 9 -87z m114 11 c0 -61 -4 -93 -10 -89 -5 3
-10 46 -10 96 0 53 4 89 10 89 6 0 10 -39 10 -96z m65 13 c11 -37 22 -67 26
-67 3 0 15 32 28 70 12 39 26 70 32 70 12 0 12 -4 -19 -98 -15 -46 -32 -84
-37 -84 -6 0 -25 41 -42 92 -20 56 -28 90 -20 87 6 -2 21 -34 32 -70z m205 52
c0 -5 -16 -9 -35 -9 -30 0 -35 -3 -35 -24 0 -24 16 -36 51 -36 11 0 17 -4 14
-10 -3 -5 -19 -10 -36 -10 -24 0 -29 -4 -29 -24 0 -19 7 -25 35 -30 50 -10 44
-28 -7 -24 l-43 3 -3 79 c-2 44 -1 84 1 90 6 14 87 9 87 -5z m184 1 c39 -15
31 -29 -13 -23 -34 5 -41 2 -56 -21 -37 -56 8 -128 70 -112 20 5 26 3 23 -6
-3 -7 -21 -14 -40 -16 -29 -2 -40 2 -57 24 -38 48 -21 139 29 157 8 3 16 6 17
6 1 1 13 -3 27 -9z m157 -29 c55 -56 31 -161 -36 -161 -72 0 -101 105 -46 161
16 16 35 29 41 29 6 0 25 -13 41 -29z m78 -83 c-1 -77 -3 -86 -10 -53 -11 56
-11 145 1 145 6 0 10 -37 9 -92z m109 -3 l32 -50 1 53 c2 65 2 69 12 78 4 4 7
-34 7 -84 0 -51 -3 -92 -7 -92 -5 0 -28 33 -53 73 l-45 72 -5 -70 c-3 -41 -8
-61 -11 -49 -7 25 -9 146 -2 157 5 9 28 -19 71 -88z m2831 64 c12 -11 26 -32
32 -46 12 -32 12 -454 -1 -487 -5 -14 -24 -35 -42 -46 -29 -17 -51 -20 -174
-20 l-141 0 -52 -57 c-55 -60 -97 -93 -119 -93 -10 0 -13 19 -10 81 l3 81 -95
-2 c-126 -4 -120 -6 -120 38 1 33 2 35 14 19 11 -15 15 -15 19 -3 3 8 16 16
29 18 13 2 24 11 26 23 3 11 1 17 -3 13 -5 -4 -14 -3 -22 3 -10 9 -13 8 -13
-1 0 -8 -2 -11 -5 -8 -9 8 6 38 16 32 16 -10 80 8 75 21 -2 7 5 20 17 30 14
12 22 14 25 7 2 -7 8 -9 13 -6 6 3 5 12 -3 22 -11 13 -10 15 5 9 20 -7 22 3 5
22 -11 11 -10 13 4 8 15 -5 16 -3 7 11 -9 14 -8 26 5 50 18 36 20 46 6 37 -6
-3 -7 1 -4 9 3 9 11 13 18 9 6 -4 4 2 -4 12 -14 17 -13 18 8 13 15 -4 26 0 36
14 13 18 15 18 18 3 4 -22 98 -49 103 -31 8 26 13 130 5 106 l-8 -25 -1 25
c-1 15 -4 20 -9 13 -13 -21 -62 -20 -62 1 0 8 -7 17 -16 20 -8 3 -12 2 -9 -4
4 -6 -7 -10 -25 -10 -17 0 -29 4 -26 9 3 5 -5 9 -19 9 -14 0 -22 -4 -20 -9 3
-4 0 -11 -7 -15 -7 -4 -10 -4 -6 0 4 5 3 18 -2 31 -6 15 -4 27 3 35 9 10 8 12
-5 7 -10 -3 -20 -2 -23 3 -4 6 -5 11 -3 11 11 5 351 26 434 28 89 1 103 -1
123 -20z m-589 -10 c12 -8 10 -9 -8 -4 -31 9 -352 -15 -377 -27 -17 -9 -18 -8
-7 3 21 23 364 48 392 28z m-3486 -41 c11 -15 16 -45 16 -90 0 -67 1 -68 26
-68 34 0 84 -30 84 -51 0 -12 -13 -18 -52 -23 -28 -4 -78 -16 -111 -28 -54
-18 -60 -19 -75 -5 -14 15 -13 20 11 55 27 38 46 117 45 180 -1 30 13 51 34
52 4 0 14 -10 22 -22z m3257 -79 c12 -12 24 -17 28 -12 23 36 81 35 95 -3 18
-47 6 -79 -49 -134 l-56 -55 -49 53 c-61 65 -70 119 -28 155 26 22 33 22 59
-4z m322 -29 c3 -11 1 -18 -4 -14 -5 3 -9 12 -9 20 0 20 7 17 13 -6z m37 -20
c0 -5 -4 -10 -10 -10 -5 0 -10 5 -10 10 0 6 5 10 10 10 6 0 10 -4 10 -10z
m-523 -174 c-7 -19 34 -36 91 -37 l47 -1 -35 -9 c-47 -12 -93 -3 -116 22 -16
17 -16 22 -4 29 20 13 23 12 17 -4z m399 -32 c-11 -8 -31 -15 -45 -15 -14 -1
-30 -2 -36 -4 -5 -1 -24 -3 -42 -3 -27 -2 -34 -9 -53 -47 -12 -25 -27 -44 -32
-43 -6 2 -21 24 -35 48 l-25 45 26 -30 c17 -19 24 -23 20 -11 -6 15 -4 17 6
11 10 -6 12 -4 7 9 -6 14 -2 17 16 14 12 -2 27 3 32 10 7 8 35 13 77 13 46 1
71 5 79 15 6 8 15 12 18 8 3 -3 -3 -12 -13 -20z m-3136 -44 c0 -5 -11 -10 -25
-10 -14 0 -25 5 -25 10 0 6 11 10 25 10 14 0 25 -4 25 -10z m3020 6 c0 -3 -4
-8 -10 -11 -5 -3 -10 -1 -10 4 0 6 5 11 10 11 6 0 10 -2 10 -4z m-2912 -13
c-15 -2 -42 -2 -60 0 -18 2 -6 4 27 4 33 0 48 -2 33 -4z m2985 0 c-7 -2 -19
-2 -25 0 -7 3 -2 5 12 5 14 0 19 -2 13 -5z m-2810 -10 c-13 -2 -33 -2 -45 0
-13 2 -3 4 22 4 25 0 35 -2 23 -4z m-230 -90 c-7 -2 -19 -2 -25 0 -7 3 -2 5
12 5 14 0 19 -2 13 -5z m350 -20 c-13 -2 -35 -2 -50 0 -16 2 -5 4 22 4 28 0
40 -2 28 -4z m-356 -547 c-6 -497 -19 -621 -32 -301 -8 197 0 688 12 747 5 26
7 28 16 13 6 -12 8 -177 4 -459z m-663 394 c12 -75 8 -805 -5 -836 l-12 -29
-9 30 c-10 36 -13 736 -3 818 9 67 20 73 29 17z m466 -430 c0 -140 -4 -271 -9
-290 -11 -43 -12 -38 -20 125 -3 72 -10 130 -15 130 -5 0 -14 -20 -20 -45 -13
-54 -30 -59 -34 -10 -8 102 -28 69 -38 -62 -7 -100 -17 -129 -28 -82 -10 40
-8 418 3 445 14 36 21 8 29 -112 4 -61 11 -103 17 -101 11 2 12 6 14 62 2 63
27 52 36 -16 4 -35 11 -54 18 -51 8 2 13 47 15 143 2 151 8 185 23 144 6 -13
10 -139 9 -280z m-536 139 c8 -159 -1 -436 -15 -444 -16 -11 -22 70 -22 305 0
234 4 290 22 290 5 0 11 -68 15 -151z m-74 -79 c10 -94 -2 -273 -21 -294 -20
-23 -30 238 -15 379 8 72 10 77 17 45 5 -19 13 -78 19 -130z m339 30 c13 -137
30 -140 38 -6 3 47 9 86 13 86 4 0 12 -45 19 -100 11 -104 -3 -310 -20 -293
-5 5 -9 49 -11 98 -2 51 -7 90 -13 90 -9 0 -17 -39 -41 -194 -3 -18 -7 -31
-10 -29 -8 8 -15 353 -8 412 9 80 22 54 33 -64z m533 -7 c5 -146 -2 -259 -17
-256 -15 4 -26 135 -20 228 14 195 30 207 37 28z m-653 -68 c0 -126 -10 -208
-22 -189 -25 40 -28 292 -4 322 20 25 27 -11 26 -133z m719 -47 c-3 -109 -9
-140 -24 -125 -10 10 -10 249 0 272 16 40 28 -26 24 -147z m-658 43 c7 -42 -7
-121 -22 -121 -18 0 -29 57 -23 110 4 30 9 59 12 63 9 15 25 -10 33 -52z
m4300 -21 c0 -5 -4 -10 -10 -10 -5 0 -10 5 -10 10 0 6 5 10 10 10 6 0 10 -4
10 -10z m8 -530 c0 -245 -3 -483 -7 -530 -7 -81 -7 -83 -16 -45 -12 49 -11
1026 0 1045 20 32 24 -47 23 -470z m64 50 c0 -106 4 -205 8 -219 l7 -26 6 25
c4 14 8 34 10 45 3 11 5 -27 6 -84 1 -87 -1 -102 -13 -92 -21 17 -26 -6 -26
-117 0 -129 -14 -148 -26 -35 -9 89 -7 691 3 706 17 28 24 -32 25 -203z m131
-214 c1 -217 -1 -288 -10 -297 -11 -10 -13 50 -13 302 1 216 4 309 11 297 6
-11 11 -133 12 -302z m-4478 243 c7 -29 8 -30 26 -13 10 9 19 23 19 31 0 7 5
13 11 13 6 0 8 -9 3 -22 -10 -35 -34 -78 -42 -78 -7 0 -42 88 -42 104 0 19 19
-8 25 -35z m4424 -144 c10 -163 6 -361 -9 -370 -9 -5 -20 233 -20 420 0 81 4
135 9 130 5 -6 14 -86 20 -180z m259 -118 c-1 -53 3 -81 11 -87 10 -5 9 -9 -3
-13 -12 -5 -16 -21 -17 -59 l-1 -53 -9 40 c-10 50 -12 287 -2 312 11 28 23
-48 21 -140z m-89 -49 c-1 -136 -4 -181 -10 -153 -10 45 -13 321 -4 336 4 5 8
9 11 9 2 0 3 -87 3 -192z m-68 -86 c-5 -2 -8 -11 -5 -20 5 -15 4 -15 -5 -1 -5
8 -12 58 -15 110 -4 60 -2 85 3 69 8 -23 9 -22 10 11 1 20 4 52 9 70 4 23 8
-12 10 -101 1 -81 -1 -136 -7 -138z m-4840 170 c1 -28 5 -52 8 -52 3 0 17 16
31 35 70 96 191 83 248 -26 44 -86 39 -163 -14 -246 -58 -88 -161 -108 -228
-44 l-32 31 1 -418 c0 -298 -3 -423 -12 -437 -10 -17 -12 -14 -17 25 -7 59
-25 1052 -19 1110 6 70 13 94 23 84 5 -5 10 -33 11 -62z m4950 -97 c5 4 9 -5
9 -18 0 -31 -27 -43 -35 -16 -4 11 -3 34 1 52 l8 32 4 -28 c2 -15 8 -25 13
-22z m-4344 -237 c-2 -29 -3 -6 -3 52 0 58 1 81 3 53 2 -29 2 -77 0 -105z
m588 122 c-17 -7 -14 -9 15 -11 60 -3 -63 -17 -166 -18 -99 -1 -123 7 -72 25
39 14 253 18 223 4z m2 -53 c36 -3 57 -16 27 -18 -45 -2 -269 3 -272 6 -2 2
-1 8 2 14 6 9 102 8 243 -2z m-57 -38 c38 0 49 -3 35 -8 l-20 -8 20 -5 c14 -4
9 -6 -15 -8 l-35 -2 30 -8 c21 -5 6 -8 -50 -8 -78 0 -163 13 -120 18 15 2 12
4 -10 10 -28 7 -27 8 15 10 l45 3 -40 7 c-30 6 -24 7 25 4 36 -2 90 -4 120 -5z
m100 -68 c0 -17 -29 -20 -138 -16 -176 8 -182 24 -9 24 81 1 147 -3 147 -8z
m-30 -50 c36 -7 19 -9 -80 -10 -146 -1 -210 10 -115 20 63 7 119 4 195 -10z
m-15 -46 c0 -6 -46 -11 -115 -12 -63 -1 -109 1 -102 3 6 3 9 10 6 15 -3 6 36
9 103 7 63 -2 108 -7 108 -13z m-716 -88 c18 -36 21 -51 12 -60 -8 -8 -11 -6
-11 9 -1 10 -9 35 -18 54 -16 32 -20 34 -62 33 -37 -2 -40 0 -20 7 52 18 73 8
99 -43z m-134 33 c4 -6 -10 -9 -34 -8 -23 1 -44 -2 -48 -5 -3 -4 -16 -35 -28
-69 -12 -34 -26 -63 -32 -65 -10 -4 31 115 50 145 10 14 83 16 92 2z m825 1
c20 -6 11 -9 -40 -15 -36 -4 -83 -6 -105 -4 -34 4 -30 5 20 8 50 2 55 4 30 10
-26 7 -23 8 20 8 28 0 61 -3 75 -7z m73 -8 c-7 -2 -21 -2 -30 0 -10 3 -4 5 12
5 17 0 24 -2 18 -5z m3624 -17 c40 -7 80 -19 89 -27 28 -23 44 -75 44 -144 0
-92 -9 -105 -70 -105 -44 0 -51 -3 -67 -30 -9 -16 -21 -30 -25 -30 -4 0 -17
18 -28 40 -16 31 -28 41 -61 50 -33 9 -43 18 -56 48 -19 47 -14 149 10 186 20
30 49 33 164 12z m-3682 -26 l70 -7 -65 -3 c-60 -2 -175 -2 -210 0 -10 1 -9 4
5 10 24 10 103 10 200 0z m75 -52 c0 -10 -97 -9 -170 2 -44 6 -33 7 57 6 62 0
113 -4 113 -8z m-95 -37 c-36 -5 -33 -6 30 -12 51 -5 40 -5 -40 -3 -190 6
-174 5 -145 14 14 4 63 8 110 7 55 0 71 -2 45 -6z m-1079 -201 c-3 -85 -6
-231 -6 -324 0 -93 -2 -167 -4 -165 -22 21 -40 639 -20 671 5 7 12 4 22 -8 11
-16 13 -47 8 -174z m184 109 c-31 -83 -31 -83 52 -75 112 10 115 12 136 68 12
31 22 46 26 39 4 -7 -3 -33 -16 -59 -25 -51 -16 -47 -161 -70 -89 -14 -92 1
-30 158 3 9 7 11 10 4 2 -6 -5 -36 -17 -65z m920 42 c67 -6 75 -9 40 -11 -71
-6 -213 1 -230 11 -18 10 69 10 190 0z m70 -51 c32 -10 -109 -11 -200 0 -57 6
-50 7 55 7 66 1 131 -3 145 -7z m-15 -51 c-58 -12 -224 -11 -205 1 8 5 67 9
130 9 88 -1 106 -3 75 -10z m65 -41 c0 -5 -60 -8 -132 -7 -86 1 -124 4 -108 9
30 11 240 8 240 -2z m-51 -54 c2 -2 -39 -4 -92 -4 -53 0 -98 4 -101 9 -6 9
184 4 193 -5z m-81 -31 c-21 -2 -55 -2 -75 0 -21 2 -4 4 37 4 41 0 58 -2 38
-4z m15 -50 c-13 -2 -33 -2 -45 0 -13 2 -3 4 22 4 25 0 35 -2 23 -4z m74 -9
c-3 -3 -12 -4 -19 -1 -8 3 -5 6 6 6 11 1 17 -2 13 -5z m11 -31 c-27 -2 -69 -2
-95 0 -27 2 -5 3 47 3 52 0 74 -1 48 -3z m-1 -50 c-20 -2 -52 -2 -70 0 -17 2
0 4 38 4 39 0 53 -2 32 -4z m50 -79 c-7 -7 -117 -7 -125 1 -3 3 25 5 63 5 38
0 66 -3 62 -6z m-39 -41 c-15 -2 -42 -2 -60 0 -18 2 -6 4 27 4 33 0 48 -2 33
-4z m-1221 -345 c-3 -8 -6 -5 -6 6 -1 11 2 17 5 13 3 -3 4 -12 1 -19z m1653
-78 c0 -11 -4 -20 -9 -20 -5 0 -7 9 -4 20 3 11 7 20 9 20 2 0 4 -9 4 -20z m35
-20 c15 -17 16 -20 3 -20 -9 0 -18 9 -21 20 -3 11 -4 20 -3 20 2 0 11 -9 21
-20z m-872 -137 c-7 -2 -19 -2 -25 0 -7 3 -2 5 12 5 14 0 19 -2 13 -5z m77
-40 c-30 -8 -88 -21 -129 -29 -41 -8 -76 -16 -79 -18 -11 -12 13 -27 34 -22
39 10 27 -1 -18 -17 -76 -26 -84 -28 -43 -7 31 15 35 20 18 20 -13 0 -23 4
-23 10 0 5 -8 6 -17 3 -15 -6 -15 -7 -1 -12 10 -4 -8 -14 -48 -28 -35 -12 -61
-17 -58 -11 5 8 -1 9 -17 4 -13 -4 -41 -12 -62 -17 -21 -5 -69 -25 -107 -44
-75 -38 -85 -41 -74 -24 8 14 -32 2 -61 -17 -23 -16 -61 -18 -70 -4 -8 13 89
55 188 80 135 34 227 60 329 91 53 16 111 32 130 35 18 2 49 8 68 13 19 5 49
9 65 9 22 0 16 -4 -25 -15z m-59 -39 c-25 -8 -47 -12 -49 -9 -5 5 56 23 78 23
8 0 -5 -6 -29 -14z m3414 -10 c6 -2 -8 -1 -30 2 -22 3 -44 10 -49 14 -8 8 53
-4 79 -16z m-3898 -30 c-3 -3 -12 -4 -19 -1 -8 3 -5 6 6 6 11 1 17 -2 13 -5z
m1622 -21 c2 -2 -5 -3 -16 -3 -11 0 -20 7 -20 15 0 12 3 12 16 3 9 -7 18 -14
20 -15z m-1199 12 c0 -3 -21 -10 -46 -16 -33 -9 -42 -14 -32 -21 9 -7 8 -8 -5
-4 -10 3 -24 6 -30 7 -7 1 13 9 43 19 60 20 70 23 70 15z m3597 -1 c-3 -3 -12
-4 -19 -1 -8 3 -5 6 6 6 11 1 17 -2 13 -5z m40 0 c-3 -3 -12 -4 -19 -1 -8 3
-5 6 6 6 11 1 17 -2 13 -5z m-3330 -20 c-3 -3 -12 -4 -19 -1 -8 3 -5 6 6 6 11
1 17 -2 13 -5z m-467 -8 c0 -2 -7 -7 -16 -10 -8 -3 -12 -2 -9 4 6 10 25 14 25
6z m3915 -24 c-3 -3 -11 0 -18 7 -9 10 -8 11 6 5 10 -3 15 -9 12 -12z m-3956
-6 c-2 -2 -26 -13 -54 -25 -45 -19 -48 -19 -28 -2 12 10 19 22 15 26 -4 5 -2
5 5 2 6 -4 22 -3 35 2 21 8 37 6 27 -3z m79 0 c-10 -7 -15 -15 -12 -18 2 -3
-6 -3 -19 -1 -13 3 -41 -3 -62 -11 -21 -9 -40 -14 -42 -12 -2 2 17 12 44 21
26 9 55 21 63 25 8 5 22 9 30 9 12 0 12 -2 -2 -13z m3577 -6 c8 -13 -5 -13
-25 0 -13 8 -13 10 2 10 9 0 20 -4 23 -10z m85 0 c18 -12 2 -12 -25 0 -13 6
-15 9 -5 9 8 0 22 -4 30 -9z m-2460 -31 c0 -6 -4 -8 -9 -5 -13 8 -69 -50 -74
-77 -3 -18 -5 -17 -6 7 -1 21 9 37 36 62 34 31 53 36 53 13z m2576 -16 c-5 -5
-76 24 -76 31 0 2 18 -3 40 -11 22 -9 38 -18 36 -20z m-2488 11 c20 -6 19 -9
-22 -34 -24 -16 -49 -37 -55 -47 -9 -16 -10 -16 -11 -1 0 15 19 34 66 65 18
12 18 12 -1 6 -40 -13 -75 -44 -75 -68 0 -23 50 -75 73 -75 8 0 7 -4 -1 -12
-9 -9 -15 -9 -24 0 -16 16 -31 15 -22 0 4 -7 5 -11 1 -8 -3 3 -6 10 -7 15 -1
6 -9 19 -19 30 -31 33 -34 59 -10 89 31 39 63 51 107 40z m249 -20 c-3 -3 -12
-4 -19 -1 -8 3 -5 6 6 6 11 1 17 -2 13 -5z m63 -3 c0 -6 -4 -13 -10 -16 -5 -3
-10 1 -10 9 0 9 5 16 10 16 6 0 10 -4 10 -9z m1660 -12 c0 -11 -3 -11 -24 -3
-23 9 -20 23 4 17 11 -3 20 -9 20 -14z m-1613 5 c-3 -3 -12 -4 -19 -1 -8 3 -5
6 6 6 11 1 17 -2 13 -5z m-2307 -14 c-8 -5 -19 -10 -25 -10 -5 0 -3 5 5 10 8
5 20 10 25 10 6 0 3 -5 -5 -10z m127 3 c-14 -4 -15 -8 -7 -18 9 -10 6 -15 -10
-20 -12 -4 -24 -4 -27 -1 -4 3 1 6 11 6 9 0 14 5 11 10 -9 15 4 30 23 29 15
-1 15 -2 -1 -6z m78 -11 c-6 -5 -30 -24 -55 -42 -110 -83 -147 -146 -135 -228
9 -61 16 -74 88 -156 34 -38 52 -64 41 -58 -24 13 -117 110 -132 139 -17 32
-27 129 -13 137 6 4 11 16 11 26 0 25 113 146 159 170 39 21 50 24 36 12z
m2105 -2 c0 -5 -5 -10 -11 -10 -5 0 -7 5 -4 10 3 6 8 10 11 10 2 0 4 -4 4 -10z
m-2370 -24 c0 -2 -8 -10 -17 -17 -16 -13 -17 -12 -4 4 13 16 21 21 21 13z
m408 -33 c-14 -16 -33 -41 -41 -58 -13 -25 -16 -26 -17 -9 0 19 59 94 76 94 4
0 -4 -12 -18 -27z m3042 -7 c0 -14 -12 -38 -26 -53 l-26 -28 21 29 c12 16 21
39 21 52 0 13 2 24 5 24 3 0 5 -11 5 -24z m715 -36 c17 -34 20 -109 4 -142 -6
-13 -22 -32 -37 -43 l-26 -19 28 37 c35 46 43 101 22 151 -17 42 -18 46 -11
46 2 0 11 -13 20 -30z m788 -23 c23 -30 46 -68 35 -57 -62 65 -98 111 -81 101
12 -6 33 -26 46 -44z m-315 18 c-3 -3 -9 2 -12 12 -6 14 -5 15 5 6 7 -7 10
-15 7 -18z m-4107 -47 c-4 -35 -6 -38 -9 -15 -3 26 3 57 10 57 2 0 1 -19 -1
-42z m-190 -25 c-8 -15 -10 -15 -11 -2 0 17 10 32 18 25 2 -3 -1 -13 -7 -23z
m4236 -77 c-3 -35 -12 -65 -22 -75 -15 -15 -15 -14 -4 14 6 17 12 61 12 98 1
51 3 62 10 45 5 -13 7 -49 4 -82z m362 59 c22 -47 26 -96 10 -130 -6 -14 -7
-6 -3 26 4 35 1 59 -15 94 -22 49 -24 55 -17 55 2 0 13 -20 25 -45z m-1593 20
c-11 -8 -24 -15 -30 -15 -5 0 -1 7 10 15 10 8 24 14 29 14 6 0 1 -6 -9 -14z
m1308 -11 c3 -8 2 -12 -4 -9 -6 3 -10 10 -10 16 0 14 7 11 14 -7z m-4257 -26
c-3 -8 -6 -5 -6 6 -1 11 2 17 5 13 3 -3 4 -12 1 -19z m-460 -30 c-3 -7 -5 -2
-5 12 0 14 2 19 5 13 2 -7 2 -19 0 -25z m390 -5 c-3 -10 -5 -4 -5 12 0 17 2
24 5 18 2 -7 2 -21 0 -30z m2923 17 c-8 -5 -19 -10 -25 -10 -5 0 -3 5 5 10 8
5 20 10 25 10 6 0 3 -5 -5 -10z m1367 -37 c-3 -10 -5 -4 -5 12 0 17 2 24 5 18
2 -7 2 -21 0 -30z m50 15 c-3 -8 -6 -5 -6 6 -1 11 2 17 5 13 3 -3 4 -12 1 -19z
m-3887 -20 c15 -21 17 -28 6 -19 -16 13 -41 51 -33 51 2 0 14 -15 27 -32z
m2390 12 c-25 -10 -52 -19 -60 -19 -19 0 70 37 90 37 8 1 -5 -8 -30 -18z
m-2747 -7 c2 -10 8 -27 12 -38 4 -11 -2 -7 -14 10 -23 32 -26 45 -12 45 5 0
11 -8 14 -17z m-488 -3 c3 -5 1 -10 -4 -10 -6 0 -11 5 -11 10 0 6 2 10 4 10 3
0 8 -4 11 -10z m5085 -30 c0 -5 -5 -10 -11 -10 -5 0 -7 5 -4 10 3 6 8 10 11
10 2 0 4 -4 4 -10z m-329 -27 c-12 -20 -14 -14 -5 12 4 9 9 14 11 11 3 -2 0
-13 -6 -23z m-1748 10 c-7 -2 -19 -2 -25 0 -7 3 -2 5 12 5 14 0 19 -2 13 -5z
m-2038 -130 c67 -32 130 -60 140 -61 11 -2 38 -11 60 -19 22 -8 64 -20 93 -27
29 -8 56 -17 60 -21 4 -4 -2 -5 -13 -2 -11 3 -46 11 -77 18 -32 7 -58 15 -58
19 0 4 -12 10 -27 13 -47 9 -68 15 -107 31 -21 9 -48 16 -60 16 -18 0 -19 2
-6 11 11 8 8 9 -15 5 -18 -4 -25 -3 -17 2 8 6 1 14 -25 26 -57 27 -140 85
-147 102 -3 8 13 0 37 -19 23 -19 96 -61 162 -94z m1735 107 c-8 -5 -42 -9
-75 -8 l-60 1 65 7 c36 4 70 7 75 8 6 1 3 -3 -5 -8z m2372 -12 c-7 -7 -12 -8
-12 -2 0 14 12 26 19 19 2 -3 -1 -11 -7 -17z m-5012 -52 c0 -12 -14 5 -31 39
-8 16 -6 15 10 -4 12 -13 21 -28 21 -35z m3800 20 c0 -2 -7 -7 -16 -10 -8 -3
-12 -2 -9 4 6 10 25 14 25 6z m840 -30 c0 -2 -8 -10 -17 -17 -16 -13 -17 -12
-4 4 13 16 21 21 21 13z m159 -63 c-23 -21 -56 -47 -73 -57 -69 -43 -175 -99
-231 -123 -100 -41 -95 -36 20 20 112 54 222 122 285 176 50 42 50 30 -1 -16z
m-954 18 c-6 -5 -23 -12 -40 -16 l-30 -6 30 15 c35 17 53 20 40 7z m-3085 -31
c8 -5 11 -10 5 -10 -5 0 -17 5 -25 10 -8 5 -10 10 -5 10 6 0 17 -5 25 -10z
m117 4 c-3 -3 -12 -4 -19 -1 -8 3 -5 6 6 6 11 1 17 -2 13 -5z m-627 -35 c24
-19 24 -19 -17 1 -24 11 -43 22 -43 24 0 9 37 -6 60 -25z m75 -47 c-3 -3 -11
0 -18 7 -9 10 -8 11 6 5 10 -3 15 -9 12 -12z m145 -47 c30 -12 69 -26 85 -30
17 -4 25 -9 19 -12 -12 -4 -159 47 -190 66 -17 11 -16 11 6 5 14 -3 50 -17 80
-29z m3940 25 c-8 -5 -19 -10 -25 -10 -5 0 -3 5 5 10 8 5 20 10 25 10 6 0 3
-5 -5 -10z m-4120 -10 c8 -5 11 -10 5 -10 -5 0 -17 5 -25 10 -8 5 -10 10 -5
10 6 0 17 -5 25 -10z m3730 6 c0 -2 -7 -7 -16 -10 -8 -3 -12 -2 -9 4 6 10 25
14 25 6z m-395 -47 c16 -8 15 -8 -8 -4 -21 4 -27 2 -21 -6 4 -8 3 -9 -5 -5 -6
4 -9 12 -6 17 7 11 14 11 40 -2z m-1940 -19 c13 -6 15 -9 5 -9 -8 0 -22 4 -30
9 -18 12 -2 12 25 0z m-1010 -21 c14 -7 7 -7 -20 -3 -22 3 -47 10 -55 15 -18
12 44 1 75 -12z m1118 4 c-7 -2 -19 -2 -25 0 -7 3 -2 5 12 5 14 0 19 -2 13 -5z
m232 -23 c16 -7 11 -9 -20 -9 -22 0 -47 4 -55 9 -19 13 46 13 75 0z m945 -9
c-14 -4 -128 -10 -255 -13 -264 -7 -271 -1 -15 11 234 11 302 11 270 2z m1400
4 c0 -6 -73 -25 -78 -20 -2 2 11 8 29 14 41 11 49 12 49 6z m-3593 -11 c-3 -3
-12 -4 -19 -1 -8 3 -5 6 6 6 11 1 17 -2 13 -5z m60 -20 c-3 -3 -12 -4 -19 -1
-8 3 -5 6 6 6 11 1 17 -2 13 -5z m2187 -5 c85 -3 -200 -28 -304 -27 -83 1 -89
2 -45 8 28 5 82 9 120 10 39 1 81 6 95 10 14 5 38 7 54 4 16 -2 52 -5 80 -5z
m-2101 -16 c-7 -2 -19 -2 -25 0 -7 3 -2 5 12 5 14 0 19 -2 13 -5z m44 -9 c-3
-3 -12 -4 -19 -1 -8 3 -5 6 6 6 11 1 17 -2 13 -5z m40 -10 c-3 -3 -12 -4 -19
-1 -8 3 -5 6 6 6 11 1 17 -2 13 -5z m2480 -40 c-3 -3 -12 -4 -19 -1 -8 3 -5 6
6 6 11 1 17 -2 13 -5z m-2250 -10 c-3 -3 -12 -4 -19 -1 -8 3 -5 6 6 6 11 1 17
-2 13 -5z m156 -31 c-7 -2 -21 -2 -30 0 -10 3 -4 5 12 5 17 0 24 -2 18 -5z"/>
<path d="M1483 4894 c-20 -20 -24 -32 -19 -57 14 -71 75 -91 102 -34 14 30 14
37 1 69 -20 47 -51 55 -84 22z"/>
<path d="M4160 4874 c37 -8 88 -9 84 -2 -3 4 -26 7 -52 7 -26 -1 -40 -3 -32
-5z"/>
<path d="M4067 4851 c-4 -17 -3 -21 5 -13 5 5 8 16 6 23 -3 8 -7 3 -11 -10z"/>
<path d="M4255 4840 c-3 -5 -1 -10 4 -10 6 0 11 5 11 10 0 6 -2 10 -4 10 -3 0
-8 -4 -11 -10z"/>
<path d="M4350 4793 c0 -12 -3 -14 -8 -7 -4 7 -8 -17 -9 -52 l-3 -64 30 0 c20
0 30 5 30 15 0 8 9 15 20 15 22 0 29 34 9 45 -5 4 -14 18 -19 31 -7 17 -14 22
-26 17 -12 -4 -15 -3 -10 5 4 7 2 12 -3 12 -6 0 -11 -8 -11 -17z m53 -63 c3
-11 1 -18 -4 -14 -5 3 -9 12 -9 20 0 20 7 17 13 -6z"/>
<path d="M4130 4680 c0 -5 5 -10 10 -10 6 0 10 5 10 10 0 6 -4 10 -10 10 -5 0
-10 -4 -10 -10z"/>
<path d="M4122 4500 c0 -14 2 -19 5 -12 2 6 2 18 0 25 -3 6 -5 1 -5 -13z"/>
<path d="M4471 4468 c-1 -10 -8 -18 -17 -18 -8 0 -13 3 -11 8 3 4 -27 5 -66 2
-72 -5 -72 -5 -83 -40 -6 -19 -16 -36 -23 -38 -21 -7 0 -22 23 -16 19 4 23 1
22 -18 -1 -17 -8 -25 -31 -29 -19 -4 -1 -7 45 -7 50 0 68 2 55 8 l-20 9 20 0
c14 1 16 4 7 9 -12 8 6 22 48 35 8 3 3 6 -12 6 -16 1 -28 6 -28 11 0 6 -7 10
-15 10 -8 0 -15 5 -15 11 0 6 9 9 20 6 11 -3 23 -1 26 4 3 5 16 9 30 9 25 0
40 20 31 42 -4 8 -6 6 -6 -4z m-61 -28 c-8 -5 -19 -10 -25 -10 -5 0 -3 5 5 10
8 5 20 10 25 10 6 0 3 -5 -5 -10z m-97 -15 c-3 -9 -8 -14 -10 -11 -3 3 -2 9 2
15 9 16 15 13 8 -4z"/>
<path d="M4160 4460 c-11 -8 -8 -9 12 -4 19 4 29 1 37 -13 6 -10 11 -13 11 -7
0 13 -21 34 -34 34 -6 0 -18 -5 -26 -10z"/>
<path d="M4435 4410 c-7 -12 2 -12 30 0 19 8 19 9 -2 9 -12 1 -25 -3 -28 -9z"/>
<path d="M4561 4337 c-13 -21 -12 -21 5 -5 10 10 16 20 13 22 -3 3 -11 -5 -18
-17z"/>
<path d="M3888 4313 c7 -3 16 -2 19 1 4 3 -2 6 -13 5 -11 0 -14 -3 -6 -6z"/>
<path d="M4448 4313 c6 -2 18 -2 25 0 6 3 1 5 -13 5 -14 0 -19 -2 -12 -5z"/>
<path d="M190 3071 c-51 -27 -77 -71 -85 -144 -12 -108 22 -185 90 -207 93
-31 199 79 190 197 -6 81 -77 173 -133 173 -15 0 -43 -8 -62 -19z m42 -141
c15 -23 28 -26 28 -6 0 24 29 26 45 3 23 -32 19 -57 -8 -57 -13 0 -28 -5 -35
-12 -15 -15 -58 7 -65 33 -6 24 2 59 14 59 5 0 14 -9 21 -20z"/>
<path d="M1218 2593 c12 -2 32 -2 45 0 12 2 2 4 -23 4 -25 0 -35 -2 -22 -4z"/>
<path d="M4826 2501 c-4 -5 3 -7 14 -4 23 6 26 13 6 13 -8 0 -17 -4 -20 -9z"/>
<path d="M4918 2493 c7 -3 16 -2 19 1 4 3 -2 6 -13 5 -11 0 -14 -3 -6 -6z"/>
<path d="M4805 2481 c3 -5 1 -12 -5 -16 -14 -8 -13 -112 1 -121 8 -4 9 1 4 16
-5 15 -4 20 4 16 6 -4 11 -2 11 3 0 6 -4 11 -9 11 -5 0 -9 15 -8 34 0 19 5 34
10 33 17 -3 18 20 2 27 -9 3 -13 2 -10 -3z"/>
<path d="M4950 2476 c0 -4 -12 -5 -27 -1 -26 6 -26 6 6 -24 18 -17 44 -31 57
-31 12 0 28 -8 33 -17 6 -11 11 -13 11 -5 0 7 5 10 10 7 6 -3 10 0 10 9 0 8
-6 17 -12 19 -10 4 -10 6 0 6 21 1 23 -22 8 -64 -9 -26 -15 -33 -16 -20 -1 18
-2 18 -11 -4 -7 -19 -15 -22 -36 -18 -20 4 -33 -1 -50 -19 -24 -26 -19 -32 9
-10 10 7 15 16 11 19 -10 11 10 8 27 -3 13 -9 13 -10 -1 -10 -13 0 -39 -28
-61 -65 -4 -6 -2 -17 4 -25 8 -13 9 -13 5 0 -3 9 3 25 12 35 19 23 42 31 39
14 -2 -6 3 -14 11 -16 9 -4 11 0 6 16 -8 26 11 28 37 4 17 -15 20 -15 28 -3
15 24 11 37 -5 16 -8 -11 -15 -16 -15 -10 1 15 26 44 33 37 4 -3 7 13 7 36 0
42 -26 114 -39 107 -11 -7 -52 14 -47 23 3 5 -5 8 -19 7 -14 0 -25 -5 -25 -10z
m20 -37 c0 -6 -4 -7 -10 -4 -5 3 -10 11 -10 16 0 6 5 7 10 4 6 -3 10 -11 10
-16z m97 -81 c-3 -7 -5 -2 -5 12 0 14 2 19 5 13 2 -7 2 -19 0 -25z"/>
<path d="M4844 2452 c-23 -15 -22 -52 3 -88 13 -20 22 -43 19 -50 -4 -9 2 -14
17 -14 15 0 18 3 9 9 -7 4 -12 12 -10 17 2 5 -7 19 -19 32 -39 38 -22 102 22
85 13 -4 16 -3 11 5 -8 13 -35 16 -52 4z"/>
<path d="M4827 2343 c-4 -3 -7 -11 -7 -17 0 -6 5 -5 12 2 6 6 9 14 7 17 -3 3
-9 2 -12 -2z"/>
<path d="M2665 4510 c-165 -26 -349 -100 -500 -201 -118 -79 -287 -252 -374
-384 -99 -149 -222 -405 -183 -381 6 3 13 2 16 -3 3 -4 20 -11 37 -15 17 -3
39 -16 49 -28 11 -13 20 -18 20 -13 0 6 7 -4 15 -22 13 -31 15 -31 47 -20 37
14 50 26 43 45 -2 6 0 12 6 12 5 0 14 12 20 27 6 15 21 49 34 75 13 26 23 62
23 79 -1 18 4 35 10 37 7 2 12 9 12 16 0 6 14 27 31 46 21 25 29 29 25 15 -5
-17 -3 -16 15 5 11 14 37 45 57 70 20 25 36 48 35 52 -2 5 2 8 7 8 6 0 10 6
10 13 0 21 78 99 91 91 8 -4 9 -3 5 4 -4 7 -2 13 3 13 21 3 26 4 39 12 7 5 10
12 7 17 -3 5 0 12 6 16 8 4 9 3 5 -4 -12 -21 12 -13 27 8 8 11 17 17 20 13 4
-3 7 0 7 8 0 34 210 124 283 121 9 0 17 4 17 10 0 6 3 9 6 6 3 -4 20 -2 37 3
84 25 362 -1 486 -45 24 -9 46 -14 49 -11 3 3 0 5 -6 5 -7 0 -12 4 -12 10 0 5
7 6 17 3 11 -4 14 -3 9 5 -4 7 -2 12 6 12 10 0 10 2 1 8 -9 6 -7 15 8 37 l20
30 -7 -30 c-7 -28 -7 -29 10 -12 23 23 31 22 66 -11 20 -19 26 -32 19 -39 -6
-6 -6 -18 0 -36 8 -20 7 -27 -1 -27 -7 0 -3 -7 8 -15 16 -13 16 -14 2 -9 -32
11 -19 -4 28 -31 32 -19 49 -24 57 -16 7 5 19 6 26 2 11 -7 9 -10 -7 -15 -18
-6 -14 -12 36 -59 31 -29 66 -63 79 -77 12 -14 23 -20 23 -14 0 6 -9 19 -19
28 -11 10 -17 25 -14 34 3 11 2 13 -4 6 -5 -9 -18 -3 -43 17 -19 16 -28 29
-20 29 7 0 10 3 7 6 -11 12 40 44 59 37 13 -5 15 -3 9 8 -5 8 4 3 18 -10 29
-26 29 -59 -2 -96 -15 -19 -15 -19 3 -5 18 14 19 14 8 -7 -8 -15 -9 -24 -2
-28 6 -4 9 -12 8 -19 -2 -6 20 -41 48 -76 28 -36 61 -82 73 -103 26 -42 57
-67 85 -67 17 0 18 2 4 18 -30 34 -39 61 -28 82 6 11 17 20 25 20 23 0 48 -46
42 -77 -3 -18 1 -32 13 -42 18 -16 35 -47 91 -163 23 -49 30 -76 26 -97 -4
-17 -2 -33 4 -36 5 -4 9 -12 8 -18 -2 -13 2 -24 39 -107 19 -42 25 -75 27
-140 4 -122 -3 -170 -23 -163 -10 4 -13 2 -8 -5 3 -6 2 -13 -3 -16 -5 -4 -12
2 -14 11 -3 10 -5 -27 -6 -82 -2 -193 -41 -443 -97 -619 -26 -84 -166 -384
-187 -401 -7 -5 -35 -41 -62 -80 -65 -93 -134 -165 -225 -238 -117 -93 -318
-181 -460 -202 -25 -4 -67 -13 -95 -22 -102 -30 -142 -28 -227 11 -42 20 -84
36 -92 36 -9 0 -16 7 -16 15 0 11 -11 15 -35 15 -23 0 -38 6 -42 16 -3 8 -15
20 -27 25 -24 11 -48 26 -88 53 -16 10 -34 16 -42 13 -14 -6 -61 35 -51 45 3
3 -33 36 -81 73 -76 60 -164 158 -164 182 0 5 -24 50 -54 100 -126 211 -206
464 -236 742 -12 108 -8 314 7 385 5 23 3 27 -8 21 -11 -7 -12 -6 -2 6 9 11 9
19 2 26 -7 7 -7 38 1 99 14 105 30 133 24 43 -3 -56 -2 -59 6 -24 12 55 12
108 0 100 -6 -4 -10 9 -11 32 0 21 -3 32 -6 26 -2 -7 -9 -13 -14 -13 -13 0
-89 -76 -89 -89 0 -6 -5 -11 -11 -11 -5 0 -3 -10 5 -22 24 -34 20 -84 -6 -103
-22 -15 -24 -14 -41 7 -12 15 -17 34 -15 55 l4 32 -19 -20 c-15 -16 -21 -18
-28 -8 -11 18 -13 13 -28 -56 -27 -128 -33 -215 -28 -385 23 -728 400 -1365
935 -1580 56 -23 107 -38 112 -35 6 3 10 2 10 -3 0 -21 143 -33 260 -22 148
13 149 13 130 -1 -11 -8 -7 -9 19 -5 18 3 41 6 50 7 12 0 11 2 -4 9 l-20 9 20
0 c74 3 332 107 410 166 17 12 44 29 62 39 95 48 314 288 384 421 12 22 27 47
34 55 8 8 26 40 41 70 14 30 35 64 44 75 10 11 26 47 35 80 10 33 21 65 25 70
8 10 32 90 85 285 15 52 29 125 32 162 3 37 10 65 14 62 5 -3 9 6 9 20 0 14
-4 26 -10 26 -5 0 -10 12 -10 28 0 18 3 23 9 14 6 -10 10 -4 15 18 9 46 8 78
-4 82 -5 2 -12 57 -15 123 -2 66 -9 143 -15 170 -6 28 -10 73 -9 100 3 81 -71
362 -92 350 -5 -4 -6 0 -4 8 7 16 -17 72 -46 108 -11 14 -24 44 -29 65 -20 86
-145 281 -270 417 -57 63 -194 175 -282 230 -69 44 -231 111 -336 138 -89 23
-294 33 -387 19z m216 -83 c30 -23 31 -51 3 -78 l-26 -24 -19 24 c-41 51 -7
115 42 78z m-288 -28 c24 -33 2 -89 -34 -89 -41 0 -55 84 -16 100 32 13 34 12
50 -11z m607 -41 c26 -28 23 -71 -4 -77 -24 -4 -46 24 -46 59 0 46 18 52 50
18z m-875 -8 c-3 -5 -12 -10 -18 -10 -7 0 -6 4 3 10 19 12 23 12 15 0z m61
-37 c15 -52 13 -63 -11 -63 -16 0 -30 11 -44 35 -19 32 -19 35 -3 44 30 18 50
12 58 -16z m64 -82 c0 -12 -41 -22 -54 -13 -6 3 0 9 14 13 36 10 40 10 40 0z
m1013 -33 c22 -28 28 -43 23 -63 -6 -24 -7 -25 -36 -10 -35 18 -60 52 -60 81
0 47 31 44 73 -8z m-1354 -90 c14 -24 14 -28 -4 -48 -24 -27 -55 -22 -74 12
-14 24 -14 28 4 48 24 27 55 22 74 -12z m1384 -46 c-14 -14 -22 -16 -32 -8
-11 9 -9 12 10 17 38 11 40 10 22 -9z m195 -99 c6 -20 9 -40 6 -45 -24 -39
-85 55 -62 96 9 16 11 16 27 2 10 -9 23 -33 29 -53z m46 -97 c-3 -9 -13 -16
-22 -16 -13 0 -12 3 4 19 22 21 27 21 18 -3z m38 -61 c-9 -13 -20 -21 -23 -19
-4 2 -5 -11 -3 -29 3 -31 3 -31 -12 -12 -8 11 -13 27 -11 35 3 8 8 24 11 35 5
15 4 15 -5 -2 -7 -13 -16 -23 -20 -23 -10 0 -23 40 -15 47 3 4 6 -2 6 -13 0
-16 2 -16 16 5 11 15 23 21 36 18 13 -4 17 -2 11 7 -4 6 0 3 9 -7 17 -18 17
-20 0 -42z m-1921 -7 c23 -26 23 -30 1 -58 -15 -19 -22 -21 -39 -11 -27 14
-37 44 -23 71 14 26 38 26 61 -2z m2221 -902 c30 -32 21 -96 -13 -96 -23 0
-31 30 -25 90 6 57 6 58 13 40 3 -8 14 -23 25 -34z m-2466 -60 c3 -13 4 -36 2
-52 -6 -58 -68 -34 -68 26 0 49 54 71 66 26z m2438 -338 c20 -28 20 -52 2 -67
-11 -9 -18 -8 -30 4 -17 18 -19 28 -10 63 8 28 19 28 38 0z m-2405 -52 c7 -8
11 -34 9 -58 -2 -35 -7 -44 -24 -46 -34 -5 -55 58 -34 99 13 23 33 25 49 5z
m2319 -268 c16 -16 15 -60 -1 -83 -13 -17 -15 -16 -30 15 -10 18 -17 38 -17
45 0 12 20 35 30 35 3 0 11 -5 18 -12z m-2200 -133 c19 -41 12 -95 -11 -95
-37 0 -59 60 -37 101 15 26 35 24 48 -6z m2077 -179 c10 -30 -2 -59 -28 -64
-20 -4 -32 50 -17 78 14 27 32 21 45 -14z m-1878 -171 c13 -28 14 -37 3 -50
-33 -40 -85 9 -62 60 16 35 39 31 59 -10z m1721 -76 c4 -46 -17 -57 -48 -24
-18 19 -20 27 -10 45 7 14 19 20 33 18 17 -2 23 -11 25 -39z m-1573 -94 c28
-27 32 -57 11 -74 -11 -9 -18 -8 -30 4 -9 9 -16 21 -16 26 0 6 -4 7 -10 4 -11
-7 -13 24 -4 49 9 22 21 20 49 -9z m1335 -95 c13 -25 6 -51 -21 -76 -17 -16
-22 -16 -29 -4 -14 22 -12 53 6 78 19 27 30 28 44 2z m-1042 -112 c28 -28 -3
-83 -32 -59 -11 10 -12 19 -4 42 11 32 18 35 36 17z m776 -27 c18 -20 11 -56
-17 -80 -13 -10 -18 -8 -32 19 -15 29 -15 34 0 56 19 29 27 30 49 5z m-581
-35 c23 -18 22 -53 -2 -66 -16 -8 -23 -5 -41 20 -34 48 -4 81 43 46z m295 -59
c-2 -20 -10 -33 -25 -38 -19 -7 -25 -3 -37 19 -14 28 -7 57 18 74 19 12 47
-24 44 -55z"/>
<path d="M1843 4323 c9 -2 23 -2 30 0 6 3 -1 5 -18 5 -16 0 -22 -2 -12 -5z"/>
<path d="M1713 4293 c9 -2 25 -2 35 0 9 3 1 5 -18 5 -19 0 -27 -2 -17 -5z"/>
<path d="M1910 4290 c-13 -8 -12 -10 3 -10 9 0 17 5 17 10 0 12 -1 12 -20 0z"/>
<path d="M1735 4250 l-30 -8 30 0 c17 0 39 3 50 8 l20 9 -20 -1 c-11 0 -33 -4
-50 -8z"/>
<path d="M1720 4220 l-45 -7 42 -1 c23 -1 45 3 48 8 3 6 5 9 3 8 -2 0 -23 -4
-48 -8z"/>
<path d="M1838 4223 c7 -3 16 -2 19 1 4 3 -2 6 -13 5 -11 0 -14 -3 -6 -6z"/>
<path d="M2725 4203 c-61 -8 -182 -46 -255 -80 -186 -85 -364 -241 -486 -426
-68 -103 -135 -258 -183 -422 -139 -484 -52 -1065 217 -1438 37 -51 55 -58 27
-10 l-17 28 26 -28 c14 -15 26 -26 26 -23 0 3 42 -40 94 -97 108 -118 176
-163 312 -207 117 -37 406 -75 360 -47 -88 55 -165 145 -186 217 -55 193 -61
222 -65 315 l-4 100 13 -100 c14 -111 61 -304 84 -350 28 -55 86 -118 146
-157 33 -21 66 -38 75 -38 8 0 40 26 69 57 43 47 47 50 20 14 -64 -85 -73 -91
-130 -92 l-53 -1 50 -10 c28 -5 59 -10 70 -10 35 -3 114 13 143 28 15 7 34 14
42 14 8 0 28 7 43 15 16 8 47 20 69 26 72 19 176 95 274 199 65 68 134 155
134 167 0 5 19 38 43 74 67 103 113 196 150 309 56 171 76 242 83 303 3 31 10
57 15 57 5 0 9 74 9 164 0 126 -5 186 -20 262 -12 55 -27 146 -35 204 -11 83
-21 118 -49 170 -19 36 -41 92 -50 125 -8 33 -20 61 -26 63 -5 2 -8 7 -5 12 6
10 -40 98 -94 180 -20 30 -79 98 -131 151 -149 150 -341 252 -529 279 -65 9
-216 11 -276 3z m55 -53 c-100 -6 -142 -13 -211 -37 -113 -39 -241 -110 -311
-172 -68 -61 -88 -67 -33 -10 76 79 197 149 330 192 103 33 110 34 240 34
l110 0 -125 -7z m210 -57 c77 -18 221 -88 305 -148 62 -44 195 -177 195 -196
0 -5 11 -20 24 -32 l24 -22 -202 3 c-110 1 -210 7 -221 12 -108 52 -261 84
-330 70 l-40 -8 40 -1 c97 -3 225 -43 225 -71 0 -13 2 -13 -64 10 -31 10 -54
14 -50 9 7 -12 -153 -3 -171 9 -5 4 22 10 60 13 l70 5 -85 2 c-58 1 -80 -1
-70 -8 11 -7 -2 -10 -42 -10 -67 0 -78 16 -15 24 23 3 56 8 72 10 17 2 -17 3
-75 2 -82 -2 -116 -8 -154 -25 -27 -11 -51 -19 -54 -17 -7 7 84 69 131 89 l42
18 -39 -7 c-56 -8 -122 -44 -181 -98 -27 -25 -54 -46 -58 -46 -5 0 -6 -3 -4
-7 3 -5 -2 -14 -10 -22 -13 -12 -14 -11 -8 10 3 13 9 31 11 41 3 9 21 29 42
44 20 15 39 31 42 34 9 12 123 75 180 100 51 23 66 25 230 25 159 0 181 -2
239 -23 73 -28 170 -82 215 -122 49 -44 25 -44 -37 0 -95 68 -227 117 -343
127 -80 6 -193 -11 -221 -34 -17 -13 -16 -14 7 -8 14 4 73 9 131 12 88 4 119
1 184 -16 109 -30 229 -91 212 -108 -4 -3 -24 3 -45 14 -20 12 -78 35 -129 52
-79 27 -106 31 -190 30 -149 -1 -158 -15 -13 -21 130 -5 209 -25 272 -70 18
-12 44 -19 75 -19 27 0 78 -1 116 -2 37 -2 67 -2 67 0 0 9 -73 69 -130 107
-139 93 -244 121 -422 114 -116 -5 -130 -8 -233 -48 -99 -39 -199 -92 -264
-142 -16 -12 -39 -17 -70 -16 -40 1 -42 2 -11 5 19 3 37 8 40 12 3 3 34 28 70
55 77 57 165 103 275 142 71 25 93 28 205 29 148 0 216 -15 340 -77 61 -31
105 -63 159 -115 54 -54 81 -73 100 -73 23 1 18 8 -55 78 -158 150 -332 222
-544 223 -88 0 -138 -10 -248 -50 -104 -39 -147 -61 -245 -127 -85 -57 -113
-68 -81 -33 61 69 230 168 359 210 91 31 111 34 225 34 111 0 134 -3 206 -28
151 -52 341 -180 394 -266 19 -31 31 -41 53 -41 l28 0 -43 57 c-45 59 -159
155 -250 211 -72 43 -205 88 -298 101 -144 20 -320 -18 -492 -105 -89 -45
-195 -132 -229 -188 -18 -28 -34 -45 -36 -39 -9 26 72 128 142 181 217 162
462 221 695 165z m-836 -254 c-22 -23 -49 -53 -62 -67 -13 -13 -26 -21 -29
-18 -3 3 17 30 45 60 28 29 53 51 56 48 4 -3 6 0 6 6 0 7 5 12 11 12 7 0 -6
-19 -27 -41z m1513 -191 c90 -135 131 -230 182 -419 82 -310 67 -677 -41 -972
-30 -84 -33 -64 -2 24 14 41 36 126 50 189 41 194 32 512 -22 751 -17 75 -80
252 -113 318 -32 61 -109 173 -113 164 -3 -4 -3 -3 -2 4 2 6 -6 23 -17 37 -11
14 -17 26 -12 26 4 0 45 -55 90 -122z m-1197 58 c-41 -40 -155 -124 -162 -120
-4 3 -8 13 -7 22 0 11 2 12 6 4 4 -9 12 -8 34 5 16 10 29 21 29 26 0 5 7 15
15 23 8 9 15 13 15 9 0 -3 17 6 37 20 42 28 55 32 33 11z m476 -36 c8 0 11 -6
8 -15 -4 -9 0 -15 10 -15 9 0 16 -4 16 -10 0 -5 -11 -10 -24 -10 -19 0 -26 7
-31 30 -4 16 -11 32 -16 35 -5 4 -9 12 -8 18 0 7 7 2 16 -10 8 -13 21 -23 29
-23z m629 30 c3 -5 -1 -10 -9 -10 -9 0 -16 5 -16 10 0 6 4 10 9 10 6 0 13 -4
16 -10z m-1327 -6 l22 -6 0 -274 0 -275 123 3 c67 2 128 -1 135 -5 7 -5 12
-30 12 -63 l0 -54 -180 0 c-178 0 -180 0 -185 23 -7 27 -23 627 -17 645 4 13
51 16 90 6z m480 -329 l2 -330 -44 3 -45 4 -6 51 c-3 29 -7 177 -8 330 l-2
278 50 -3 50 -3 3 -330z m138 315 c28 0 32 -4 39 -36 3 -20 12 -50 20 -68 18
-43 85 -258 85 -276 1 -8 6 -25 13 -38 12 -21 17 -11 56 115 24 76 49 158 56
183 8 25 21 62 30 83 15 36 18 38 51 34 47 -6 49 -10 37 -54 -56 -195 -102
-348 -135 -450 l-40 -123 -37 0 -38 0 -39 117 c-21 64 -45 122 -51 129 -7 7
-13 19 -13 28 0 8 -4 17 -9 20 -4 3 -11 29 -14 58 -4 30 -23 98 -43 153 -53
147 -51 139 -23 132 13 -4 38 -7 55 -7z m732 -26 c9 -3 12 -19 10 -51 l-3 -48
-97 -3 -98 -3 0 -69 0 -70 90 0 90 0 0 -50 0 -49 -87 -3 -88 -3 -3 -72 -3 -72
108 -3 107 -3 9 -38 c16 -68 16 -69 -160 -65 l-158 3 0 105 c0 58 2 196 3 307
l3 202 132 -5 c73 -3 138 -8 145 -10z m42 -69 c0 -28 9 -69 21 -95 82 -179
130 -345 150 -511 14 -121 7 -345 -15 -462 -17 -89 -65 -268 -76 -280 -10 -11
1 46 28 145 40 147 55 290 49 458 -9 233 -52 421 -148 635 -23 50 -39 207 -18
174 5 -8 9 -36 9 -64z m-1185 45 c-4 -6 -24 -21 -44 -34 -21 -13 -54 -40 -74
-59 -20 -19 -37 -30 -37 -25 0 14 48 56 105 93 58 38 58 38 50 25z m1265 -157
c166 -363 185 -819 51 -1203 -16 -47 -30 -76 -30 -64 -1 11 10 52 23 90 58
171 71 263 71 494 -1 182 -4 233 -24 330 -27 140 -62 248 -113 357 -21 45 -38
85 -38 90 1 16 33 -34 60 -94z m-1350 30 c-21 -37 -60 -78 -60 -63 0 8 14 29
32 47 36 37 43 41 28 16z m-479 -79 c-65 -171 -101 -375 -110 -624 -6 -158 -6
-162 -13 -82 -18 207 31 525 109 710 20 45 37 81 40 79 2 -2 -10 -40 -26 -83z
m1664 46 c21 -41 19 -51 -5 -15 -11 17 -20 33 -20 38 0 15 10 6 25 -23z m88
-47 c48 -106 81 -208 108 -333 19 -87 23 -138 23 -295 0 -173 -2 -200 -27
-305 -41 -176 -46 -190 -64 -190 -14 0 -15 2 -1 18 8 9 28 82 44 162 26 130
29 164 28 325 -1 143 -6 200 -23 280 -30 142 -68 259 -107 337 -37 73 -38 78
-26 78 5 0 25 -35 45 -77z m-1704 -55 c-74 -218 -105 -432 -96 -663 4 -82 14
-188 23 -233 8 -46 14 -86 11 -88 -3 -3 -10 23 -17 58 -6 35 -17 88 -23 118
-6 30 -11 145 -11 255 0 220 13 308 75 504 26 80 63 161 73 161 2 0 -14 -51
-35 -112z m1676 39 c4 -17 24 -84 45 -147 56 -167 70 -259 71 -438 0 -127 -16
-321 -26 -310 -1 2 1 69 4 149 4 81 5 188 3 238 l-4 91 -52 0 c-60 0 -830 -25
-1225 -40 -221 -9 -276 -8 -282 2 -11 17 95 24 576 38 204 6 502 15 664 21
246 10 295 9 302 -2 7 -11 9 -10 9 4 0 31 -40 200 -65 275 -14 40 -25 83 -25
95 0 13 -3 27 -7 31 -10 10 -13 37 -3 31 5 -3 12 -20 15 -38z m-1242 16 c-12
-31 -53 -86 -53 -72 0 14 47 89 55 89 2 0 1 -8 -2 -17z m-66 -50 c-3 -10 -5
-4 -5 12 0 17 2 24 5 18 2 -7 2 -21 0 -30z m-323 -50 c-58 -189 -84 -356 -85
-559 -1 -107 -4 -138 -10 -109 -13 65 -10 272 6 375 17 115 47 235 74 295 26
59 34 57 15 -2z m401 10 c-9 -21 -25 -51 -36 -68 -19 -27 -20 -28 -13 -5 11
42 49 110 60 110 3 0 -3 -17 -11 -37z m655 -36 c0 -5 -4 -5 -10 -2 -5 3 -10
14 -10 23 0 15 2 15 10 2 5 -8 10 -19 10 -23z m-630 -56 c-11 -23 -24 -41 -29
-41 -6 0 2 20 16 46 31 55 42 52 13 -5z m1229 -33 c21 -61 29 -119 9 -65 -6
16 -17 27 -28 27 -27 0 -50 27 -49 58 1 26 1 25 10 -5 7 -23 16 -33 30 -33 11
0 17 5 14 10 -13 21 -23 70 -15 70 4 0 18 -28 29 -62z m-1648 -65 c-24 -115
-43 -269 -41 -333 2 -62 0 -69 -11 -41 -14 36 8 265 36 378 14 54 25 100 25
102 0 2 3 2 6 -1 3 -4 -4 -51 -15 -105z m1546 85 c-3 -8 -6 -5 -6 6 -1 11 2
17 5 13 3 -3 4 -12 1 -19z m130 -160 c-3 -7 -5 -2 -5 12 0 14 2 19 5 13 2 -7
2 -19 0 -25z m-1660 -105 c-3 -10 -5 -2 -5 17 0 19 2 27 5 18 2 -10 2 -26 0
-35z m1675 -310 l-5 -303 -28 0 c-32 0 -28 -4 -170 224 l-74 119 -3 -187 -2
-186 -34 0 c-31 0 -34 3 -40 38 -3 20 -6 118 -6 218 0 99 -4 184 -9 190 -5 5
-11 39 -14 77 l-5 67 34 0 c23 0 38 -7 49 -22 29 -40 141 -216 176 -278 34
-59 56 -80 40 -37 -4 12 -7 40 -5 62 2 22 7 95 10 163 l6 123 31 -3 c23 -2 33
-9 38 -28 6 -21 7 -20 8 13 1 27 -3 37 -14 37 -8 0 -15 4 -15 9 0 12 23 21 31
12 4 -3 4 -142 1 -308z m-1672 231 c0 -34 -4 -53 -10 -49 -18 11 -12 105 7
105 2 0 3 -25 3 -56z m1220 -274 l0 -300 -39 0 -39 0 -4 58 c-3 31 -3 109 -1
172 2 63 0 160 -4 214 -5 55 -7 112 -5 128 4 26 8 28 48 28 l44 0 0 -300z
m357 278 c2 -18 0 -20 -7 -8 -12 18 -13 30 -2 30 4 0 9 -10 9 -22z m-719 1
c59 -12 124 -63 153 -121 72 -142 49 -345 -50 -445 -67 -66 -170 -83 -239 -39
-91 58 -130 140 -139 291 -5 84 -4 95 22 149 27 56 114 158 145 169 24 9 56 8
108 -4z m-470 -20 c50 -10 132 -68 132 -93 0 -6 -13 -27 -28 -45 l-28 -34 -28
27 c-58 53 -160 26 -213 -57 -52 -83 -38 -236 27 -290 57 -49 164 -41 198 13
13 22 3 27 -16 8 -6 -6 -15 -9 -18 -5 -4 3 6 12 21 19 26 12 29 10 70 -37 50
-58 48 -64 -28 -116 -45 -31 -56 -34 -121 -34 -113 1 -172 42 -223 155 -11 25
-23 66 -27 92 -4 26 -11 50 -15 53 -23 14 -21 76 5 141 36 90 50 115 59 106 5
-4 5 1 2 10 -4 12 -2 15 9 11 7 -3 14 -1 14 3 0 5 16 26 35 47 30 32 40 37 79
37 25 0 67 -5 94 -11z m-601 -386 c-3 -10 -5 -2 -5 17 0 19 2 27 5 18 2 -10 2
-26 0 -35z m130 -267 c-4 -13 -37 82 -36 103 0 9 9 -9 20 -39 11 -30 18 -59
16 -64z m1763 55 c0 -12 -31 -18 -170 -31 -63 -6 -140 -15 -170 -20 -30 -6
-104 -14 -165 -20 -60 -5 -177 -16 -260 -25 -82 -8 -202 -19 -265 -24 -63 -6
-182 -17 -265 -26 -185 -19 -248 -19 -243 -3 5 13 122 26 573 68 121 11 256
24 300 29 44 5 141 15 215 22 74 6 189 17 255 24 153 16 195 17 195 6z m-30
-78 c-13 -9 -32 -25 -41 -34 -20 -20 -29 -15 -29 15 0 14 3 17 8 9 6 -10 17
-7 42 11 19 13 37 22 39 20 3 -3 -6 -12 -19 -21z m-1770 -28 c0 -5 -5 -3 -10
5 -5 8 -10 20 -10 25 0 6 5 3 10 -5 5 -8 10 -19 10 -25z m170 3 c0 -5 -4 -8
-10 -8 -5 0 -10 10 -10 23 0 18 2 19 10 7 5 -8 10 -18 10 -22z m1389 -167 c1
-52 -2 -91 -6 -87 -4 3 -13 -4 -20 -16 -12 -22 -12 -22 -13 12 0 19 4 51 9 70
16 63 21 100 12 100 -4 0 -13 -39 -20 -87 -16 -112 -31 -171 -25 -98 l4 50
-16 -50 c-29 -97 -49 -131 -108 -190 -32 -33 -54 -50 -48 -38 7 12 18 28 26
36 9 9 11 19 5 28 -7 11 -9 11 -9 -3 0 -9 -5 -20 -11 -24 -8 -4 -9 1 -4 17 5
19 4 21 -5 9 -22 -31 -43 -76 -51 -110 -7 -32 -7 -33 7 -16 8 11 14 29 14 41
0 12 7 30 16 41 15 19 16 19 9 -1 -4 -11 -8 -26 -8 -34 0 -8 -13 -37 -29 -65
-24 -42 -28 -46 -23 -21 3 17 2 24 -1 17 -3 -6 -10 -9 -16 -6 -5 3 -8 0 -6 -7
4 -19 -30 -73 -54 -88 -16 -10 -14 -4 8 26 16 21 32 39 36 41 4 2 4 10 1 18
-4 11 -16 0 -40 -36 -18 -27 -36 -50 -39 -50 -4 0 1 10 10 23 9 12 25 39 36
59 21 38 45 62 33 32 -5 -14 -3 -15 15 -5 12 6 19 17 16 25 -3 8 4 34 16 58
14 30 16 37 4 23 -9 -11 -22 -33 -30 -50 -7 -16 -13 -24 -14 -16 0 7 11 34 25
60 27 50 68 162 61 168 -2 2 -12 -19 -21 -47 -28 -85 -161 -327 -173 -316 -2
2 19 43 46 90 58 101 81 188 87 326 l4 95 -9 -75 c-6 -41 -16 -106 -24 -145
-15 -71 -53 -171 -63 -162 -2 3 2 18 10 34 17 32 40 136 58 265 11 76 11 97
-3 155 -9 37 -15 70 -12 72 6 7 34 -67 51 -136 16 -64 16 -72 -12 -248 -3 -16
4 -3 15 30 21 64 26 159 15 285 -4 51 -3 70 4 60 15 -24 27 -138 21 -207 -3
-38 -1 -58 4 -53 14 14 19 166 8 233 -8 52 -8 57 6 43 11 -10 16 -45 20 -118
4 -81 7 -97 14 -73 5 17 6 71 3 120 -5 73 -4 88 6 78 9 -9 13 -45 13 -115 0
-118 12 -88 17 42 2 66 4 73 6 33 5 -66 21 -69 26 -5 3 26 3 -2 2 -63 -1 -60
1 -99 6 -85 4 14 7 55 8 92 1 62 13 94 24 66 3 -7 6 -1 6 15 1 32 21 37 21 4
0 -12 -9 -54 -20 -92 -11 -38 -20 -77 -19 -85 0 -8 12 23 26 70 14 47 30 99
37 115 l11 30 7 -45 c3 -25 7 -87 7 -139z m51 139 c5 19 8 11 14 -37 9 -70 23
-88 63 -79 l28 7 -23 -16 c-54 -39 -103 15 -100 112 1 43 2 49 6 23 5 -33 5
-33 12 -10z m162 9 c-35 -31 -81 -37 -90 -11 -3 11 0 11 15 1 16 -10 26 -7 59
14 52 34 56 33 16 -4z m-192 -39 c0 -54 24 -108 52 -120 13 -5 17 -9 8 -9 -9
-1 -25 5 -36 13 -19 14 -20 13 -16 -17 3 -18 1 -29 -3 -25 -4 4 -9 37 -11 75
-2 37 -6 80 -9 96 -2 15 0 27 5 27 6 0 10 -18 10 -40z m-375 -22 c20 -70 19
-157 -5 -274 -21 -100 -72 -214 -101 -222 -9 -2 -10 -1 -3 5 22 16 62 110 79
188 21 91 25 260 8 318 -6 20 -7 37 -3 37 5 0 16 -23 25 -52z m463 27 c-3 -3
-9 2 -12 12 -6 14 -5 15 5 6 7 -7 10 -15 7 -18z m-701 -112 c-2 -169 37 -333
78 -333 20 0 19 30 0 44 -20 15 -45 165 -45 272 0 77 15 152 28 139 4 -3 9
-84 12 -180 3 -95 8 -177 13 -181 18 -18 22 19 21 187 0 98 3 179 8 179 35 0
35 -300 -1 -425 -11 -38 -18 -71 -17 -73 16 -16 61 127 77 244 10 79 9 127 -8
224 -9 56 13 23 26 -38 15 -71 14 -145 -3 -234 -24 -123 -76 -239 -95 -211 -3
5 -14 12 -23 16 -41 15 -98 192 -98 305 0 59 17 192 25 192 2 0 2 -57 2 -127z
m-60 -5 c1 -192 54 -353 133 -403 23 -15 39 -29 36 -32 -10 -10 -80 45 -104
81 -69 102 -106 316 -75 444 3 12 6 22 8 22 1 0 2 -51 2 -112z m861 97 c-3 -3
-23 -8 -44 -11 l-39 -4 40 13 c38 13 55 13 43 2z m-74 -43 c-16 -4 -54 15 -54
27 0 5 15 1 34 -8 18 -9 27 -17 20 -19z m-1016 -230 c17 -57 35 -108 38 -114
4 -7 2 -8 -4 -4 -22 13 -92 252 -91 308 l1 53 12 -70 c7 -38 27 -116 44 -173z
m13 86 c11 -53 28 -122 39 -152 10 -31 15 -56 11 -56 -15 0 -74 225 -77 295
-1 39 0 57 2 40 2 -16 14 -74 25 -127z m179 -88 c18 -67 51 -151 73 -183 11
-16 38 -42 60 -58 22 -16 33 -29 25 -29 -25 0 -92 66 -121 117 -45 84 -74 236
-67 353 2 29 6 10 11 -55 4 -55 13 -120 19 -145z m-340 160 c0 -8 9 -42 19
-75 45 -142 66 -179 185 -329 43 -54 44 -56 9 -21 -118 120 -212 305 -236 465
l-6 35 14 -30 c8 -16 14 -37 15 -45z m1235 40 c-9 -16 -18 -30 -21 -30 -2 0 2
14 11 30 9 17 18 30 21 30 2 0 -2 -13 -11 -30z m-1378 -2 c-3 -8 -6 -5 -6 6
-1 11 2 17 5 13 3 -3 4 -12 1 -19z m-198 -43 c0 -5 -6 1 -14 15 -8 14 -14 30
-14 35 0 6 6 -1 14 -15 8 -14 14 -29 14 -35z m266 -28 c12 -35 29 -79 39 -97
9 -18 14 -35 11 -38 -7 -7 -63 120 -74 168 -13 57 -3 44 24 -33z m150 -119 c4
-10 5 -18 2 -18 -9 0 -46 122 -52 170 -3 28 4 11 19 -45 13 -49 27 -98 31
-107z m31 7 c32 -104 75 -186 154 -287 16 -20 18 -28 8 -34 -7 -4 -10 -4 -6 0
3 4 -18 40 -47 79 -30 40 -63 90 -74 112 -28 57 -91 262 -90 293 1 22 3 19 11
-13 5 -22 25 -90 44 -150z m154 -67 c12 -40 33 -95 47 -123 26 -51 130 -160
164 -170 11 -4 19 -11 19 -16 0 -17 -55 18 -114 71 -65 60 -106 137 -135 255
-20 82 -27 143 -21 205 1 19 6 -7 10 -57 5 -51 18 -125 30 -165z m-234 24 c20
-46 34 -85 32 -88 -5 -5 -81 161 -103 225 -8 24 -15 53 -14 65 0 11 11 -10 25
-49 13 -38 40 -107 60 -153z m280 -21 c27 -93 73 -173 133 -230 46 -45 48 -49
14 -22 -56 43 -107 103 -132 156 -32 68 -61 198 -60 267 l1 63 14 -90 c8 -49
21 -114 30 -144z m-554 10 c96 -105 156 -155 231 -193 33 -16 57 -32 54 -35
-17 -16 -271 155 -315 213 -35 45 -102 150 -102 160 0 5 13 -7 28 -26 15 -19
62 -73 104 -119z m-19 88 c25 -31 67 -77 94 -101 26 -25 64 -60 83 -78 l35
-32 -44 30 c-83 58 -133 105 -170 161 -68 101 -68 106 2 20z m1407 11 c-6 -11
-13 -20 -16 -20 -2 0 0 9 6 20 6 11 13 20 16 20 2 0 0 -9 -6 -20z m56 -8 c-17
-16 -18 -16 -5 5 7 12 15 20 18 17 3 -2 -3 -12 -13 -22z m-22 -34 c-19 -32
-57 -78 -61 -74 -3 3 10 23 28 45 34 41 46 52 33 29z m-1065 -93 c0 -5 -6 1
-14 15 -8 14 -14 30 -14 35 0 6 6 -1 14 -15 8 -14 14 -29 14 -35z m969 26
c-13 -15 -25 -27 -27 -25 -4 4 39 54 47 54 2 0 -7 -13 -20 -29z m-111 -54
c-32 -29 -72 -61 -90 -71 l-32 -17 34 28 c19 15 57 47 85 71 70 59 72 52 3
-11z m113 5 c0 -5 -9 -17 -20 -27 -19 -17 -19 -17 -7 9 12 25 27 35 27 18z
m-845 -84 c15 -29 36 -64 48 -78 l21 -25 -26 25 c-31 29 -92 130 -78 130 5 0
21 -24 35 -52z m775 8 c0 -2 -7 -7 -16 -10 -8 -3 -12 -2 -9 4 6 10 25 14 25 6z
m-409 -74 c-17 -22 -38 -45 -48 -53 -17 -13 -17 -12 -2 6 34 42 72 85 76 85 3
0 -9 -17 -26 -38z m-453 -47 c40 -10 71 -20 68 -22 -6 -6 -136 26 -155 38 -12
8 -12 9 -1 6 8 -2 48 -12 88 -22z m232 -70 c0 -2 -23 8 -50 21 -28 14 -48 29
-45 34 5 9 95 -43 95 -55z m378 29 c-10 -9 -150 -56 -154 -51 -3 2 17 12 43
21 27 10 62 23 78 30 28 13 45 13 33 0z m-168 -20 c-8 -8 -21 -19 -31 -25 -15
-7 -17 -6 -13 6 3 8 10 13 14 10 4 -3 13 2 20 10 7 8 15 15 17 15 3 0 0 -7 -7
-16z"/>
<path d="M2769 2757 c-19 -12 -47 -45 -62 -72 -25 -45 -27 -58 -24 -125 6
-130 64 -201 133 -165 16 8 34 15 40 15 6 0 19 9 29 20 12 14 21 17 25 9 10
-16 44 36 63 96 19 58 12 106 -21 172 -38 73 -117 94 -183 50z"/>
<path d="M2835 2385 c-16 -7 -23 -14 -15 -14 8 0 26 6 40 14 32 18 14 18 -25
0z"/>
<path d="M3312 2010 c0 -19 2 -27 5 -17 2 9 2 25 0 35 -3 9 -5 1 -5 -18z"/>
<path d="M3301 1954 c0 -11 3 -14 6 -6 3 7 2 16 -1 19 -3 4 -6 -2 -5 -13z"/>
<path d="M3251 1889 c-12 -29 -20 -54 -18 -56 2 -2 14 20 26 48 12 29 20 54
18 56 -2 2 -14 -20 -26 -48z"/>
<path d="M3316 1914 c-4 -14 -5 -28 -3 -31 3 -2 8 8 11 23 4 14 5 28 3 31 -3
2 -8 -8 -11 -23z"/>
<path d="M3286 1905 c-9 -26 -7 -32 5 -12 6 10 9 21 6 23 -2 3 -7 -2 -11 -11z"/>
<path d="M3256 1829 c-9 -23 -15 -43 -13 -46 3 -2 12 15 21 38 9 23 15 43 13
46 -3 2 -12 -15 -21 -38z"/>
<path d="M3312 1826 c-6 -14 -9 -34 -5 -43 3 -10 3 -15 -2 -11 -4 4 -14 3 -22
-3 -17 -15 -17 -5 3 32 8 17 14 33 12 35 -2 2 -14 -17 -26 -42 -12 -25 -17
-42 -11 -38 8 4 9 0 4 -16 -7 -23 -7 -23 18 -4 33 24 60 80 49 100 -7 12 -11
10 -20 -10z m9 -23 c-12 -20 -14 -14 -5 12 4 9 9 14 11 11 3 -2 0 -13 -6 -23z"/>
<path d="M3208 1775 c-3 -11 -9 -29 -13 -40 -3 -11 1 -7 10 8 9 16 15 33 12
40 -2 6 -6 3 -9 -8z"/>
<path d="M1748 4193 c7 -3 16 -2 19 1 4 3 -2 6 -13 5 -11 0 -14 -3 -6 -6z"/>
<path d="M1804 4185 c35 -18 36 -18 36 0 0 10 -10 15 -32 15 l-33 0 29 -15z"/>
<path d="M1645 4181 c-3 -6 10 -7 32 -4 50 8 55 13 10 13 -20 0 -38 -4 -42 -9z"/>
<path d="M1787 4163 c-10 -9 -9 -23 2 -23 5 0 11 7 15 15 5 15 -5 20 -17 8z"/>
<path d="M1658 4133 c7 -3 16 -2 19 1 4 3 -2 6 -13 5 -11 0 -14 -3 -6 -6z"/>
<path d="M1648 4113 c7 -3 16 -2 19 1 4 3 -2 6 -13 5 -11 0 -14 -3 -6 -6z"/>
<path d="M1703 4062 c-7 -4 -9 -13 -4 -21 6 -9 10 -7 14 8 3 12 4 21 4 21 -1
0 -7 -4 -14 -8z"/>
<path d="M1498 4043 c7 -3 16 -2 19 1 4 3 -2 6 -13 5 -11 0 -14 -3 -6 -6z"/>
<path d="M1593 4033 c9 -2 23 -2 30 0 6 3 -1 5 -18 5 -16 0 -22 -2 -12 -5z"/>
<path d="M1658 4013 c7 -3 16 -2 19 1 4 3 -2 6 -13 5 -11 0 -14 -3 -6 -6z"/>
<path d="M1553 4003 c9 -2 25 -2 35 0 9 3 1 5 -18 5 -19 0 -27 -2 -17 -5z"/>
<path d="M1463 3993 c9 -2 25 -2 35 0 9 3 1 5 -18 5 -19 0 -27 -2 -17 -5z"/>
<path d="M2165 3989 c-11 -17 1 -21 15 -4 8 9 8 15 2 15 -6 0 -14 -5 -17 -11z"/>
<path d="M1654 3979 c-3 -6 -2 -15 4 -21 7 -7 14 -3 21 11 10 17 9 21 -3 21
-8 0 -18 -5 -22 -11z"/>
<path d="M1475 3965 c-94 -17 -54 -17 70 -1 70 10 85 14 50 14 -27 0 -81 -6
-120 -13z"/>
<path d="M1556 3939 c-100 -11 -121 -19 -36 -14 36 2 82 4 103 4 23 1 36 5 32
11 -3 6 -9 9 -13 9 -4 -1 -43 -5 -86 -10z"/>
<path d="M1598 3912 c-16 -2 -28 -7 -28 -12 0 -4 9 -6 20 -3 11 3 20 0 20 -6
0 -6 -8 -11 -17 -12 -11 0 -13 -3 -5 -6 14 -6 16 -33 2 -33 -5 0 -10 -7 -10
-15 0 -9 -10 -15 -22 -16 -13 0 -17 -3 -10 -6 6 -2 12 -14 12 -25 0 -14 -5
-18 -15 -14 -8 3 -15 1 -15 -4 0 -16 23 -11 48 10 13 11 21 24 17 30 -3 5 -2
10 3 10 13 0 41 62 38 83 -3 22 -6 23 -38 19z"/>
<path d="M1513 3893 c9 -2 25 -2 35 0 9 3 1 5 -18 5 -19 0 -27 -2 -17 -5z"/>
<path d="M1555 3850 c4 -6 11 -8 16 -5 14 9 11 15 -7 15 -8 0 -12 -5 -9 -10z"/>
<path d="M1493 3843 c9 -2 25 -2 35 0 9 3 1 5 -18 5 -19 0 -27 -2 -17 -5z"/>
<path d="M1328 3813 c6 -2 18 -2 25 0 6 3 1 5 -13 5 -14 0 -19 -2 -12 -5z"/>
<path d="M1475 3630 c-3 -5 -2 -10 4 -10 5 0 13 5 16 10 3 6 2 10 -4 10 -5 0
-13 -4 -16 -10z"/>
<path d="M1418 3623 c7 -3 16 -2 19 1 4 3 -2 6 -13 5 -11 0 -14 -3 -6 -6z"/>
<path d="M1477 3603 c-9 -2 -15 -9 -12 -14 9 -14 22 -11 29 6 3 8 4 14 3 14
-1 -1 -10 -3 -20 -6z"/>
<path d="M1308 3223 c7 -3 16 -2 19 1 4 3 -2 6 -13 5 -11 0 -14 -3 -6 -6z"/>
<path d="M3982 3170 c0 -14 2 -19 5 -12 2 6 2 18 0 25 -3 6 -5 1 -5 -13z"/>
<path d="M4333 3060 c0 -36 2 -50 4 -32 2 17 2 47 0 65 -2 17 -4 3 -4 -33z"/>
<path d="M4131 3084 c0 -11 3 -14 6 -6 3 7 2 16 -1 19 -3 4 -6 -2 -5 -13z"/>
<path d="M1308 3063 c7 -3 16 -2 19 1 4 3 -2 6 -13 5 -11 0 -14 -3 -6 -6z"/>
<path d="M1328 3043 c7 -3 16 -2 19 1 4 3 -2 6 -13 5 -11 0 -14 -3 -6 -6z"/>
<path d="M1330 3020 c-9 -6 -10 -10 -3 -10 6 0 14 -8 16 -17 3 -11 5 -7 6 10
1 30 1 30 -19 17z"/>
<path d="M1093 3013 c9 -2 25 -2 35 0 9 3 1 5 -18 5 -19 0 -27 -2 -17 -5z"/>
<path d="M1103 2993 c9 -2 23 -2 30 0 6 3 -1 5 -18 5 -16 0 -22 -2 -12 -5z"/>
<path d="M1288 2974 c-11 -11 1 -24 23 -24 11 0 19 7 19 16 0 13 -3 14 -14 5
-10 -9 -15 -9 -18 -1 -2 6 -7 8 -10 4z"/>
<path d="M4327 2942 c-29 -32 -40 -365 -32 -977 3 -285 8 -521 10 -524 3 -2 7
-2 9 0 2 2 6 126 8 276 1 149 6 274 10 278 23 24 28 -20 28 -273 0 -212 3
-263 12 -254 18 18 21 136 10 373 -10 197 -4 299 17 299 15 0 21 -94 21 -343
0 -201 2 -248 13 -238 9 9 12 98 12 374 0 199 4 396 9 437 9 71 10 73 19 40 5
-19 10 -190 10 -380 1 -218 6 -347 12 -350 7 -3 12 149 16 440 5 379 15 544
30 520 2 -3 5 -214 8 -469 5 -367 9 -465 19 -469 10 -3 12 107 11 580 -1 320
0 601 2 623 2 22 0 41 -6 43 -12 3 -12 2 -21 -153 -6 -97 -9 -112 -15 -80 -4
22 -8 81 -8 132 -1 86 -11 123 -25 87 -3 -9 -6 -59 -6 -112 0 -105 -13 -150
-23 -85 -4 21 -7 77 -7 125 0 48 -4 89 -9 92 -13 8 -21 -57 -21 -174 0 -58 -4
-111 -9 -118 -11 -18 -21 69 -21 190 0 53 -4 99 -9 102 -9 6 -20 -83 -22 -163
0 -25 -4 -55 -8 -66 -8 -19 -16 46 -24 194 -2 43 -2 43 -20 23z"/>
<path d="M1228 2913 c7 -3 16 -2 19 1 4 3 -2 6 -13 5 -11 0 -14 -3 -6 -6z"/>
<path d="M1290 2910 c20 -13 47 -13 55 0 4 6 -9 10 -32 10 -28 0 -34 -3 -23
-10z"/>
<path d="M4250 2731 c0 -7 -5 -9 -10 -6 -6 4 -10 3 -9 -2 1 -4 0 -15 -4 -23
-5 -16 -26 -194 -30 -267 -1 -24 -5 -43 -9 -43 -5 0 -8 -9 -8 -19 0 -48 -48
-225 -90 -330 -19 -49 -20 -61 -11 -122 6 -37 11 -116 12 -176 0 -59 4 -117 9
-128 7 -16 9 -14 10 15 2 88 11 197 17 220 l6 25 7 -30 c4 -16 8 -59 9 -95 2
-83 9 -110 27 -103 12 4 14 52 14 272 0 148 4 259 9 251 5 -8 11 -118 15 -243
3 -126 9 -234 13 -240 4 -6 8 -50 9 -97 3 -150 4 -160 14 -160 13 0 14 237 1
244 -5 4 -3 28 5 59 11 42 13 142 10 525 -2 260 -6 476 -10 479 -3 4 -6 1 -6
-6z m-45 -416 c-1 -53 -15 -74 -15 -22 0 30 8 67 14 67 1 0 1 -20 1 -45z m5
-85 c0 -5 -2 -10 -4 -10 -3 0 -8 5 -11 10 -3 6 -1 10 4 10 6 0 11 -4 11 -10z
m-73 -142 c-3 -8 -6 -5 -6 6 -1 11 2 17 5 13 3 -3 4 -12 1 -19z"/>
<path d="M906 2433 c-10 -124 -7 -523 4 -523 6 0 10 107 10 300 0 165 -2 300
-4 300 -1 0 -6 -34 -10 -77z"/>
<path d="M957 2099 c-7 -163 -3 -229 14 -229 11 0 10 334 0 370 -4 14 -10 -45
-14 -141z"/>
<path d="M4011 2064 c0 -11 3 -14 6 -6 3 7 2 16 -1 19 -3 4 -6 -2 -5 -13z"/>
<path d="M1008 1978 c-3 -161 -1 -219 11 -231 8 -8 11 30 11 151 0 101 -4 162
-10 162 -6 0 -11 -35 -12 -82z"/>
<path d="M4031 1823 c0 -43 4 -87 9 -98 6 -13 9 14 9 78 1 58 -3 97 -9 97 -6
0 -10 -32 -9 -77z"/>
<path d="M1116 1759 c-7 -80 0 -159 15 -159 5 0 10 12 11 28 6 112 5 151 -6
177 -12 29 -13 27 -20 -46z"/>
<path d="M567 1787 c-9 -35 3 -226 14 -233 11 -6 11 152 0 216 -6 43 -7 44
-14 17z"/>
<path d="M531 1724 c0 -11 3 -14 6 -6 3 7 2 16 -1 19 -3 4 -6 -2 -5 -13z"/>
<path d="M1170 1680 c0 -48 14 -67 26 -35 8 20 -5 85 -16 85 -6 0 -10 -22 -10
-50z"/>
<path d="M3984 1605 c0 -60 1 -84 3 -52 2 32 2 81 0 110 -2 29 -3 3 -3 -58z"/>
<path d="M2236 1593 c64 -60 149 -117 200 -133 16 -5 66 -19 111 -31 68 -19
84 -20 98 -9 8 7 14 14 12 16 -2 2 -53 18 -113 35 -117 34 -187 65 -274 124
-89 60 -99 60 -34 -2z"/>
<path d="M4170 1558 c0 -35 5 -70 10 -78 7 -10 10 9 10 63 0 45 -4 77 -10 77
-6 0 -10 -27 -10 -62z"/>
<path d="M4106 1575 c4 -8 8 -15 10 -15 2 0 4 7 4 15 0 8 -4 15 -10 15 -5 0
-7 -7 -4 -15z"/>
<path d="M222 1560 c0 -14 2 -19 5 -12 2 6 2 18 0 25 -3 6 -5 1 -5 -13z"/>
<path d="M1291 1544 c0 -11 3 -14 6 -6 3 7 2 16 -1 19 -3 4 -6 -2 -5 -13z"/>
<path d="M3405 1540 c-3 -5 -1 -10 4 -10 6 0 11 5 11 10 0 6 -2 10 -4 10 -3 0
-8 -4 -11 -10z"/>
<path d="M2265 1520 c3 -5 11 -10 16 -10 6 0 7 5 4 10 -3 6 -11 10 -16 10 -6
0 -7 -4 -4 -10z"/>
<path d="M3863 1480 c0 -25 2 -35 4 -22 2 12 2 32 0 45 -2 12 -4 2 -4 -23z"/>
<path d="M3981 1474 c0 -11 3 -14 6 -6 3 7 2 16 -1 19 -3 4 -6 -2 -5 -13z"/>
<path d="M4694 1390 c0 -52 1 -74 3 -47 2 26 2 68 0 95 -2 26 -3 4 -3 -48z"/>
<path d="M4561 1414 c0 -11 3 -14 6 -6 3 7 2 16 -1 19 -3 4 -6 -2 -5 -13z"/>
<path d="M550 1393 c0 -12 5 -25 10 -28 13 -8 13 15 0 35 -8 12 -10 11 -10 -7z"/>
<path d="M4373 1375 c0 -22 2 -30 4 -17 2 12 2 30 0 40 -3 9 -5 -1 -4 -23z"/>
<path d="M4442 1380 c0 -14 2 -19 5 -12 2 6 2 18 0 25 -3 6 -5 1 -5 -13z"/>
<path d="M5103 1295 c0 -38 2 -53 4 -32 2 20 2 52 0 70 -2 17 -4 1 -4 -38z"/>
<path d="M1250 1300 c-8 -5 -10 -10 -5 -10 6 0 17 5 25 10 8 5 11 10 5 10 -5
0 -17 -5 -25 -10z"/>
<path d="M2087 1289 c7 -7 15 -10 18 -7 3 3 -2 9 -12 12 -14 6 -15 5 -6 -5z"/>
<path d="M2061 1264 c0 -11 3 -14 6 -6 3 7 2 16 -1 19 -3 4 -6 -2 -5 -13z"/>
<path d="M3708 1273 c7 -3 16 -2 19 1 4 3 -2 6 -13 5 -11 0 -14 -3 -6 -6z"/>
<path d="M1500 1253 c-14 -3 -29 -9 -35 -15 -13 -13 46 -1 60 13 5 5 7 8 5 8
-3 -1 -16 -4 -30 -6z"/>
<path d="M1585 1186 c-117 -39 -230 -103 -301 -173 -49 -47 -49 -46 -25 -138
6 -25 23 -51 43 -68 18 -15 42 -36 53 -45 67 -60 263 -142 375 -157 30 -4 60
-11 66 -16 13 -11 173 -37 304 -49 154 -15 530 -22 595 -12 58 9 55 10 -65 13
-69 2 -150 3 -180 1 -39 -1 -51 1 -40 8 10 7 -12 10 -75 10 -265 0 -683 82
-827 160 -10 6 -23 10 -30 10 -14 0 -84 44 -132 82 -31 25 -65 90 -66 125 0
13 9 37 21 55 18 28 20 29 14 8 -16 -60 -17 -81 -1 -105 16 -24 45 -37 30 -13
-4 7 -3 8 5 4 9 -6 9 -11 0 -22 -6 -8 -9 -17 -5 -21 3 -3 6 0 6 7 0 9 9 5 25
-10 14 -13 25 -20 25 -15 0 4 -8 15 -17 24 -18 16 -20 23 -27 86 -4 35 33 107
51 101 8 -3 10 1 6 11 -5 12 -2 15 8 11 9 -4 21 2 28 14 7 11 18 17 26 14 16
-6 38 17 27 29 -4 4 3 2 15 -4 18 -9 22 -9 18 1 -7 19 15 40 65 65 51 25 45
28 -15 9z m-198 -132 c-15 -15 -27 -23 -27 -19 0 12 42 56 48 50 3 -3 -7 -17
-21 -31z m-32 -264 c3 -6 -1 -7 -9 -4 -18 7 -21 14 -7 14 6 0 13 -4 16 -10z
m46 -37 c13 -15 12 -15 -8 -4 -24 12 -29 21 -14 21 5 0 15 -7 22 -17z m972
-210 c-7 -2 -19 -2 -25 0 -7 3 -2 5 12 5 14 0 19 -2 13 -5z"/>
<path d="M3480 1170 c8 -5 22 -10 31 -10 9 0 27 -9 40 -20 l24 -19 -34 9 c-55
15 -46 6 25 -24 51 -23 68 -26 74 -16 9 14 15 11 78 -37 23 -18 49 -30 57 -27
8 4 15 1 15 -7 0 -7 3 -9 7 -6 9 10 -27 47 -45 47 -8 0 -30 11 -48 25 -18 14
-74 41 -123 60 -89 34 -132 45 -101 25z"/>
<path d="M3760 1170 c8 -5 38 -10 65 -10 65 0 41 16 -28 18 -38 2 -48 0 -37
-8z"/>
<path d="M1560 1139 c0 -5 5 -7 10 -4 6 3 10 8 10 11 0 2 -4 4 -10 4 -5 0 -10
-5 -10 -11z"/>
<path d="M4220 1140 c8 -5 20 -10 25 -10 6 0 3 5 -5 10 -8 5 -19 10 -25 10 -5
0 -3 -5 5 -10z"/>
<path d="M3890 1129 c0 -6 8 -9 20 -6 12 3 18 1 14 -5 -4 -6 -1 -9 5 -7 21 7
13 24 -14 27 -14 2 -25 -2 -25 -9z"/>
<path d="M4255 1121 c-14 -6 -5 -8 27 -7 27 1 48 4 48 9 0 9 -49 8 -75 -2z"/>
<path d="M3958 1103 c7 -3 16 -2 19 1 4 3 -2 6 -13 5 -11 0 -14 -3 -6 -6z"/>
<path d="M3578 1072 c29 -28 35 -30 57 -20 22 10 29 8 51 -13 15 -13 35 -42
45 -64 10 -22 19 -32 19 -22 0 10 5 15 10 12 22 -14 -53 87 -76 102 -21 13
-29 14 -49 3 -21 -11 -28 -11 -42 2 -36 30 -47 30 -15 0z"/>
<path d="M3148 1053 c6 -2 18 -2 25 0 6 3 1 5 -13 5 -14 0 -19 -2 -12 -5z"/>
<path d="M3550 1040 c20 -13 33 -13 25 0 -3 6 -14 10 -23 10 -15 0 -15 -2 -2
-10z"/>
<path d="M3650 1039 c0 -5 5 -7 10 -4 6 3 10 8 10 11 0 2 -4 4 -10 4 -5 0 -10
-5 -10 -11z"/>
<path d="M3620 1030 c0 -5 5 -10 11 -10 5 0 7 5 4 10 -3 6 -8 10 -11 10 -2 0
-4 -4 -4 -10z"/>
<path d="M3590 1021 c0 -6 4 -13 10 -16 6 -3 7 1 4 9 -7 18 -14 21 -14 7z"/>
<path d="M4110 1000 c0 -5 5 -10 11 -10 5 0 7 5 4 10 -3 6 -8 10 -11 10 -2 0
-4 -4 -4 -10z"/>
<path d="M1402 970 c-21 -33 -8 -100 19 -100 6 0 5 8 -2 21 -6 12 -9 39 -6 60
3 22 4 39 3 39 0 0 -7 -9 -14 -20z"/>
<path d="M1462 950 c0 -19 2 -27 5 -17 2 9 2 25 0 35 -3 9 -5 1 -5 -18z"/>
<path d="M3616 965 c-3 -8 -1 -15 4 -15 6 0 10 7 10 15 0 8 -2 15 -4 15 -2 0
-6 -7 -10 -15z"/>
<path d="M3821 955 c1 -19 18 -51 18 -35 0 8 -4 22 -9 30 -5 8 -9 11 -9 5z"/>
<path d="M3592 913 c-17 -36 -102 -97 -210 -151 -48 -23 -76 -39 -62 -36 31 8
103 41 152 71 41 25 53 28 43 12 -4 -6 2 -5 14 3 12 7 19 18 17 25 -3 7 -1 15
4 18 4 3 10 0 12 -6 2 -6 14 8 27 30 12 23 21 46 19 51 -2 6 -9 -2 -16 -17z"/>
<path d="M3800 855 c-7 -9 -10 -18 -7 -21 3 -3 10 4 17 15 13 25 8 27 -10 6z"/>
<path d="M4486 837 c3 -10 9 -15 12 -12 3 3 0 11 -7 18 -10 9 -11 8 -5 -6z"/>
<path d="M1575 824 c27 -27 67 -54 79 -54 5 0 -9 13 -30 28 -54 39 -73 49 -49
26z"/>
<path d="M1451 816 c10 -9 69 -36 69 -32 0 6 -55 36 -66 36 -4 0 -5 -2 -3 -4z"/>
<path d="M1770 715 c14 -8 32 -14 40 -14 8 0 0 6 -19 14 -42 19 -54 19 -21 0z"/>
<path d="M3585 694 c-27 -13 -39 -21 -26 -18 34 9 91 33 91 39 0 9 -14 4 -65
-21z"/>
<path d="M3455 650 c-14 -7 -8 -8 20 -3 22 3 42 7 44 9 9 8 -45 2 -64 -6z"/>
<path d="M3318 613 c7 -3 16 -2 19 1 4 3 -2 6 -13 5 -11 0 -14 -3 -6 -6z"/>
<path d="M4290 590 c0 -5 5 -10 10 -10 6 0 10 5 10 10 0 6 -4 10 -10 10 -5 0
-10 -4 -10 -10z"/>
<path d="M4260 580 c0 -5 5 -10 11 -10 5 0 7 5 4 10 -3 6 -8 10 -11 10 -2 0
-4 -4 -4 -10z"/>
<path d="M3050 570 c-34 -7 -34 -7 -5 -8 17 0 53 3 80 8 l50 7 -45 0 c-25 0
-61 -3 -80 -7z"/>
<path d="M3735 390 c11 -5 27 -9 35 -9 9 0 8 4 -5 9 -11 5 -27 9 -35 9 -9 0
-8 -4 5 -9z"/>
</g>
</svg>
